<svg width="60" height="60" viewBox="0 0 60 60" fill="none" xmlns="http://www.w3.org/2000/svg">
<g filter="url(#filter0_d_694_8760)">
<mask id="path-1-outside-1_694_8760" maskUnits="userSpaceOnUse" x="11.5898" y="7.73242" width="37" height="46" fill="black">
<rect fill="white" x="11.5898" y="7.73242" width="37" height="46"/>
<path fill-rule="evenodd" clip-rule="evenodd" d="M19.6914 9.73242C18.642 9.73242 17.7914 10.5831 17.7914 11.6324V15.899L13.7112 23.1545C13.634 23.2873 13.5898 23.4416 13.5898 23.6062V49.3061C13.5898 50.9077 14.8882 52.2061 16.4898 52.2061H36.1093C36.1129 52.2061 36.1165 52.2061 36.1202 52.2061H43.5102C45.1118 52.2061 46.4102 50.9077 46.4102 49.3061V23.7326C46.4102 23.5537 46.3568 23.3789 46.257 23.2304L41.3133 15.8782V11.6324C41.3133 10.5831 40.4626 9.73242 39.4133 9.73242H19.6914ZM37.1117 50.4061V23.8417L37.2962 23.5137L40.5677 17.9951L44.6102 24.0071V49.3061C44.6102 49.9136 44.1177 50.4061 43.5102 50.4061H37.1117ZM35.7373 22.6135L38.8746 17.0348H19.2178L16.0285 22.706H35.6825L35.7373 22.6135ZM35.2202 24.5062H15.3898V49.3061C15.3898 49.9136 15.8823 50.4061 16.4898 50.4061H35.2202L35.2202 24.5062ZM19.5914 15.2347H39.5133V11.6324C39.5133 11.5772 39.4685 11.5324 39.4133 11.5324H19.6914C19.6362 11.5324 19.5914 11.5772 19.5914 11.6324V15.2347Z"/>
</mask>
<path fill-rule="evenodd" clip-rule="evenodd" d="M19.6914 9.73242C18.642 9.73242 17.7914 10.5831 17.7914 11.6324V15.899L13.7112 23.1545C13.634 23.2873 13.5898 23.4416 13.5898 23.6062V49.3061C13.5898 50.9077 14.8882 52.2061 16.4898 52.2061H36.1093C36.1129 52.2061 36.1165 52.2061 36.1202 52.2061H43.5102C45.1118 52.2061 46.4102 50.9077 46.4102 49.3061V23.7326C46.4102 23.5537 46.3568 23.3789 46.257 23.2304L41.3133 15.8782V11.6324C41.3133 10.5831 40.4626 9.73242 39.4133 9.73242H19.6914ZM37.1117 50.4061V23.8417L37.2962 23.5137L40.5677 17.9951L44.6102 24.0071V49.3061C44.6102 49.9136 44.1177 50.4061 43.5102 50.4061H37.1117ZM35.7373 22.6135L38.8746 17.0348H19.2178L16.0285 22.706H35.6825L35.7373 22.6135ZM35.2202 24.5062H15.3898V49.3061C15.3898 49.9136 15.8823 50.4061 16.4898 50.4061H35.2202L35.2202 24.5062ZM19.5914 15.2347H39.5133V11.6324C39.5133 11.5772 39.4685 11.5324 39.4133 11.5324H19.6914C19.6362 11.5324 19.5914 11.5772 19.5914 11.6324V15.2347Z" fill="#F8F9FA"/>
<path d="M17.7914 15.899L19.0988 16.6343C19.2251 16.4098 19.2914 16.1566 19.2914 15.899H17.7914ZM13.7112 23.1545L15.0079 23.9084C15.0115 23.9022 15.0151 23.896 15.0186 23.8898L13.7112 23.1545ZM36.1093 52.2061L36.1268 50.7062C36.121 50.7061 36.1152 50.7061 36.1093 50.7061V52.2061ZM46.257 23.2304L45.0123 24.0674L45.0123 24.0674L46.257 23.2304ZM41.3133 15.8782H39.8133C39.8133 16.1764 39.9022 16.4678 40.0685 16.7152L41.3133 15.8782ZM37.1117 23.8417L35.8043 23.1065C35.678 23.331 35.6117 23.5842 35.6117 23.8417H37.1117ZM37.1117 50.4061H35.6117C35.6117 51.2345 36.2833 51.9061 37.1117 51.9061V50.4061ZM37.2962 23.5137L36.0059 22.7488C36 22.7586 35.9943 22.7685 35.9887 22.7785L37.2962 23.5137ZM40.5677 17.9951L41.8124 17.1581C41.5253 16.7311 41.0394 16.4811 40.525 16.4957C40.0107 16.5104 39.5397 16.7876 39.2774 17.2302L40.5677 17.9951ZM44.6102 24.0071H46.1102C46.1102 23.7089 46.0213 23.4175 45.8549 23.1701L44.6102 24.0071ZM35.7373 22.6135L37.0276 23.3785C37.0334 23.3686 37.0391 23.3588 37.0447 23.3488L35.7373 22.6135ZM38.8746 17.0348L40.182 17.7701C40.4432 17.3056 40.4384 16.7374 40.1694 16.2775C39.9003 15.8175 39.4074 15.5348 38.8746 15.5348V17.0348ZM19.2178 17.0348V15.5348C18.6758 15.5348 18.176 15.8272 17.9103 16.2995L19.2178 17.0348ZM16.0285 22.706L14.721 21.9708C14.4598 22.4352 14.4646 23.0034 14.7337 23.4634C15.0027 23.9233 15.4956 24.206 16.0285 24.206V22.706ZM35.6825 22.706V24.206C36.2122 24.206 36.7026 23.9266 36.9728 23.471L35.6825 22.706ZM35.2202 24.5062H36.7202C36.7202 24.1084 36.5621 23.7268 36.2808 23.4455C35.9995 23.1642 35.618 23.0062 35.2202 23.0062V24.5062ZM15.3898 24.5062V23.0062C14.5614 23.0062 13.8898 23.6777 13.8898 24.5062H15.3898ZM35.2202 50.4061V51.9061C36.0486 51.9061 36.7202 51.2345 36.7202 50.4061H35.2202ZM39.5133 15.2347V16.7347C40.3417 16.7347 41.0133 16.0632 41.0133 15.2347H39.5133ZM19.5914 15.2347H18.0914C18.0914 16.0632 18.763 16.7347 19.5914 16.7347V15.2347ZM19.2914 11.6324C19.2914 11.4115 19.4705 11.2324 19.6914 11.2324V8.23242C17.8136 8.23242 16.2914 9.75465 16.2914 11.6324H19.2914ZM19.2914 15.899V11.6324H16.2914V15.899H19.2914ZM15.0186 23.8898L19.0988 16.6343L16.4839 15.1637L12.4037 22.4193L15.0186 23.8898ZM15.0898 23.6062C15.0898 23.7134 15.0603 23.8184 15.0079 23.9084L12.4144 22.4006C12.2077 22.7562 12.0898 23.1697 12.0898 23.6062H15.0898ZM15.0898 49.3061V23.6062H12.0898V49.3061H15.0898ZM16.4898 50.7061C15.7166 50.7061 15.0898 50.0793 15.0898 49.3061H12.0898C12.0898 51.7361 14.0597 53.7061 16.4898 53.7061V50.7061ZM36.1093 50.7061H16.4898V53.7061H36.1093V50.7061ZM36.1202 50.7061C36.1229 50.7061 36.1251 50.7061 36.1268 50.7062L36.0919 53.706C36.1008 53.7061 36.1102 53.7061 36.1202 53.7061V50.7061ZM43.5102 50.7061H36.1202V53.7061H43.5102V50.7061ZM44.9102 49.3061C44.9102 50.0793 44.2834 50.7061 43.5102 50.7061V53.7061C45.9402 53.7061 47.9102 51.7362 47.9102 49.3061H44.9102ZM44.9102 23.7326V49.3061H47.9102V23.7326H44.9102ZM45.0123 24.0674C44.9457 23.9684 44.9102 23.8519 44.9102 23.7326H47.9102C47.9102 23.2556 47.768 22.7893 47.5018 22.3934L45.0123 24.0674ZM40.0685 16.7152L45.0123 24.0674L47.5018 22.3934L42.5581 15.0412L40.0685 16.7152ZM39.8133 11.6324V15.8782H42.8133V11.6324H39.8133ZM39.4133 11.2324C39.6342 11.2324 39.8133 11.4115 39.8133 11.6324H42.8133C42.8133 9.75465 41.2911 8.23242 39.4133 8.23242V11.2324ZM19.6914 11.2324H39.4133V8.23242H19.6914V11.2324ZM35.6117 23.8417V50.4061H38.6117V23.8417H35.6117ZM35.9887 22.7785L35.8043 23.1065L38.4191 24.577L38.6036 24.249L35.9887 22.7785ZM39.2774 17.2302L36.0059 22.7488L38.5865 24.2786L41.858 18.7601L39.2774 17.2302ZM45.8549 23.1701L41.8124 17.1581L39.3229 18.8321L43.3654 24.8441L45.8549 23.1701ZM46.1102 49.3061V24.0071H43.1102V49.3061H46.1102ZM43.5102 51.9061C44.9461 51.9061 46.1102 50.7421 46.1102 49.3061H43.1102C43.1102 49.0852 43.2892 48.9061 43.5102 48.9061V51.9061ZM37.1117 51.9061H43.5102V48.9061H37.1117V51.9061ZM37.0447 23.3488L40.182 17.7701L37.5671 16.2995L34.4299 21.8783L37.0447 23.3488ZM38.8746 15.5348H19.2178V18.5348H38.8746V15.5348ZM17.9103 16.2995L14.721 21.9708L17.3359 23.4413L20.5252 17.7701L17.9103 16.2995ZM16.0285 24.206H35.6825V21.206H16.0285V24.206ZM36.9728 23.471L37.0276 23.3785L34.447 21.8486L34.3922 21.9411L36.9728 23.471ZM35.2202 23.0062H15.3898V26.0062H35.2202V23.0062ZM13.8898 24.5062V49.3061H16.8898V24.5062H13.8898ZM13.8898 49.3061C13.8898 50.742 15.0538 51.9061 16.4898 51.9061V48.9061C16.7107 48.9061 16.8898 49.0851 16.8898 49.3061H13.8898ZM16.4898 51.9061H35.2202V48.9061H16.4898V51.9061ZM36.7202 50.4061L36.7202 24.5062H33.7202L33.7202 50.4061H36.7202ZM39.5133 13.7347H19.5914V16.7347H39.5133V13.7347ZM38.0133 11.6324V15.2347H41.0133V11.6324H38.0133ZM39.4133 13.0324C38.6401 13.0324 38.0133 12.4056 38.0133 11.6324H41.0133C41.0133 10.7487 40.2969 10.0324 39.4133 10.0324V13.0324ZM19.6914 13.0324H39.4133V10.0324H19.6914V13.0324ZM21.0914 11.6324C21.0914 12.4056 20.4646 13.0324 19.6914 13.0324V10.0324C18.8077 10.0324 18.0914 10.7488 18.0914 11.6324H21.0914ZM21.0914 15.2347V11.6324H18.0914V15.2347H21.0914Z" fill="#F8F9FA" mask="url(#path-1-outside-1_694_8760)"/>
</g>
<path d="M18.6914 11.5674C18.6914 11.0151 19.1391 10.5674 19.6914 10.5674H39.4133C39.9656 10.5674 40.4133 11.0151 40.4133 11.5674V16.0698H18.6914V11.5674Z" fill="#E5DBFF" stroke="#212529" stroke-width="1.8" stroke-linecap="round" stroke-linejoin="round"/>
<path d="M14.4898 23.541H36.2117V51.2409H16.4898C15.3852 51.2409 14.4898 50.3455 14.4898 49.2409V23.541Z" fill="#E5DBFF" stroke="#212529" stroke-width="1.8" stroke-linecap="round" stroke-linejoin="round"/>
<path d="M23.9047 38.3682C21.4679 36.2457 17.4952 34.9719 15.399 35.3322V49.4013C15.399 49.9535 15.8467 50.4013 16.399 50.4013H35.2335V38.2755C34.3164 37.4895 33.2369 36.0099 31.3938 36.0099C28.9673 36.0099 26.9508 41.0212 23.9047 38.3682Z" fill="#F7F3FF"/>
<path d="M18.6914 16.0693H40.4133L36.2117 23.5406H14.4898L18.6914 16.0693Z" fill="#F3F0FF" stroke="#212529" stroke-width="1.8" stroke-linecap="round" stroke-linejoin="round"/>
<path d="M45.5102 23.6677L40.5198 16.2461L36.1202 23.6677L36.1202 51.2412H43.5102C44.6148 51.2412 45.5102 50.3458 45.5102 49.2412V23.6677Z" fill="#D0BFFF" stroke="#212529" stroke-width="1.8" stroke-linecap="round" stroke-linejoin="round"/>
<rect x="21.5895" y="32.168" width="7.45346" height="8.44718" rx="3.72673" fill="#212529"/>
<rect x="29.5524" y="36.5752" width="5.1196" height="8.4723" rx="2.5598" transform="rotate(90 29.5524 36.5752)" fill="#212529"/>
<path d="M23.0889 33.138C22.7801 33.1217 22.0104 32.5634 21.4889 32.1468C21.3661 32.0487 21.1878 32.1215 21.1984 32.2783C21.2507 33.0535 21.7542 33.9107 22.1178 34.398C22.1903 34.4952 22.3318 34.4983 22.4114 34.407C22.8455 33.9089 23.419 33.1554 23.0889 33.138Z" fill="#212529"/>
<path d="M27.6574 33.138C27.9661 33.1217 28.7359 32.5634 29.2574 32.1468C29.3802 32.0487 29.5585 32.1215 29.5479 32.2783C29.4956 33.0535 28.9921 33.9107 28.6285 34.398C28.556 34.4952 28.4145 34.4983 28.3348 34.407C27.9008 33.9089 27.3273 33.1554 27.6574 33.138Z" fill="#212529"/>
<defs>
<filter id="filter0_d_694_8760" x="11.8698" y="8.21242" width="36.2604" height="45.9136" filterUnits="userSpaceOnUse" color-interpolation-filters="sRGB">
<feFlood flood-opacity="0" result="BackgroundImageFix"/>
<feColorMatrix in="SourceAlpha" type="matrix" values="0 0 0 0 0 0 0 0 0 0 0 0 0 0 0 0 0 0 127 0" result="hardAlpha"/>
<feOffset dy="0.2"/>
<feGaussianBlur stdDeviation="0.11"/>
<feComposite in2="hardAlpha" operator="out"/>
<feColorMatrix type="matrix" values="0 0 0 0 0 0 0 0 0 0 0 0 0 0 0 0 0 0 0.2 0"/>
<feBlend mode="normal" in2="BackgroundImageFix" result="effect1_dropShadow_694_8760"/>
<feBlend mode="normal" in="SourceGraphic" in2="effect1_dropShadow_694_8760" result="shape"/>
</filter>
</defs>
</svg>
