<svg width="60" height="59" viewBox="0 0 60 59" fill="none" xmlns="http://www.w3.org/2000/svg">
<mask id="path-1-outside-1_694_7419" maskUnits="userSpaceOnUse" x="8.17798" y="7.12012" width="43" height="45" fill="black">
<rect fill="white" x="8.17798" y="7.12012" width="43" height="45"/>
<path fill-rule="evenodd" clip-rule="evenodd" d="M34.0409 11.5247C34.4851 10.7608 34.226 9.78148 33.4621 9.33725C32.6982 8.89303 31.7189 9.15216 31.2746 9.91604C30.6066 11.0648 29.7278 12.9003 29.0861 14.9457C22.8004 15.1027 18.1054 17.0908 14.9525 20.3416C11.6729 23.723 10.178 28.351 10.178 33.3553C10.178 38.3912 11.8195 42.6177 15.2005 45.5695C18.5619 48.5042 23.5086 50.0616 29.8979 50.0616C36.2873 50.0616 41.234 48.5042 44.5954 45.5695C47.9764 42.6177 49.6179 38.3912 49.6179 33.3553C49.6179 28.351 48.123 23.723 44.8434 20.3416C41.9853 17.3948 37.8601 15.4856 32.4316 15.0373C32.9502 13.5989 33.5696 12.3351 34.0409 11.5247ZM28.556 16.9652C28.1511 18.9096 28.0303 21.0516 28.6935 22.934C28.9872 23.7674 29.9009 24.205 30.7343 23.9114C31.5677 23.6177 32.0053 22.704 31.7116 21.8706C31.2646 20.6017 31.3651 18.8683 31.8308 16.9979C37.0967 17.3458 40.8794 19.1272 43.4078 21.734C46.243 24.6573 47.6179 28.7391 47.6179 33.3553C47.6179 37.94 46.1392 41.5667 43.2801 44.0629C40.4014 46.5761 35.9881 48.0616 29.8979 48.0616C23.8078 48.0616 19.3945 46.5761 16.5158 44.0629C13.6567 41.5667 12.178 37.94 12.178 33.3553C12.178 28.7391 13.5529 24.6573 16.3881 21.734C19.0101 19.0307 22.9809 17.2151 28.556 16.9652Z"/>
</mask>
<path fill-rule="evenodd" clip-rule="evenodd" d="M34.0409 11.5247C34.4851 10.7608 34.226 9.78148 33.4621 9.33725C32.6982 8.89303 31.7189 9.15216 31.2746 9.91604C30.6066 11.0648 29.7278 12.9003 29.0861 14.9457C22.8004 15.1027 18.1054 17.0908 14.9525 20.3416C11.6729 23.723 10.178 28.351 10.178 33.3553C10.178 38.3912 11.8195 42.6177 15.2005 45.5695C18.5619 48.5042 23.5086 50.0616 29.8979 50.0616C36.2873 50.0616 41.234 48.5042 44.5954 45.5695C47.9764 42.6177 49.6179 38.3912 49.6179 33.3553C49.6179 28.351 48.123 23.723 44.8434 20.3416C41.9853 17.3948 37.8601 15.4856 32.4316 15.0373C32.9502 13.5989 33.5696 12.3351 34.0409 11.5247ZM28.556 16.9652C28.1511 18.9096 28.0303 21.0516 28.6935 22.934C28.9872 23.7674 29.9009 24.205 30.7343 23.9114C31.5677 23.6177 32.0053 22.704 31.7116 21.8706C31.2646 20.6017 31.3651 18.8683 31.8308 16.9979C37.0967 17.3458 40.8794 19.1272 43.4078 21.734C46.243 24.6573 47.6179 28.7391 47.6179 33.3553C47.6179 37.94 46.1392 41.5667 43.2801 44.0629C40.4014 46.5761 35.9881 48.0616 29.8979 48.0616C23.8078 48.0616 19.3945 46.5761 16.5158 44.0629C13.6567 41.5667 12.178 37.94 12.178 33.3553C12.178 28.7391 13.5529 24.6573 16.3881 21.734C19.0101 19.0307 22.9809 17.2151 28.556 16.9652Z" fill="#F8F9FA"/>
<path d="M33.4621 9.33725L34.2162 8.04057V8.04057L33.4621 9.33725ZM34.0409 11.5247L32.7442 10.7706L32.7442 10.7707L34.0409 11.5247ZM31.2746 9.91604L32.5713 10.6701V10.6701L31.2746 9.91604ZM29.0861 14.9457L29.1236 16.4453C29.765 16.4292 30.3253 16.007 30.5173 15.3947L29.0861 14.9457ZM14.9525 20.3416L16.0292 21.3859H16.0292L14.9525 20.3416ZM15.2005 45.5695L16.187 44.4395H16.187L15.2005 45.5695ZM44.5954 45.5695L43.6089 44.4395V44.4395L44.5954 45.5695ZM44.8434 20.3416L45.9202 19.2972V19.2972L44.8434 20.3416ZM32.4316 15.0373L31.0205 14.5286C30.8622 14.9678 30.9173 15.4556 31.1697 15.8483C31.4221 16.241 31.8429 16.4938 32.3081 16.5323L32.4316 15.0373ZM28.6935 22.934L30.1083 22.4355L28.6935 22.934ZM28.556 16.9652L30.0245 17.2711C30.1189 16.8175 29.9985 16.3458 29.6983 15.993C29.398 15.6403 28.9516 15.446 28.4888 15.4667L28.556 16.9652ZM30.7343 23.9114L31.2328 25.3261L30.7343 23.9114ZM31.7116 21.8706L30.2969 22.3691V22.3691L31.7116 21.8706ZM31.8308 16.9979L31.9296 15.5012C31.2053 15.4534 30.5506 15.9311 30.3752 16.6355L31.8308 16.9979ZM43.4078 21.734L44.4845 20.6897L43.4078 21.734ZM43.2801 44.0629L44.2666 45.1928V45.1928L43.2801 44.0629ZM16.5158 44.0629L15.5293 45.1928L15.5293 45.1928L16.5158 44.0629ZM16.3881 21.734L17.4649 22.7783L16.3881 21.734ZM32.708 10.6339C32.7558 10.6617 32.772 10.7229 32.7442 10.7706L35.3376 12.2788C36.1983 10.7988 35.6962 8.90125 34.2162 8.04057L32.708 10.6339ZM32.5713 10.6701C32.5991 10.6224 32.6603 10.6062 32.708 10.6339L34.2162 8.04057C32.7362 7.17989 30.8386 7.68196 29.978 9.16198L32.5713 10.6701ZM30.5173 15.3947C31.1228 13.4647 31.9543 11.7311 32.5713 10.6701L29.978 9.16197C29.2588 10.3985 28.3328 12.3358 27.6549 14.4968L30.5173 15.3947ZM16.0292 21.3859C18.8527 18.4748 23.1421 16.5947 29.1236 16.4453L29.0487 13.4462C22.4588 13.6108 17.3581 15.7067 13.8757 19.2972L16.0292 21.3859ZM11.678 33.3553C11.678 28.6417 13.083 24.4235 16.0292 21.3859L13.8757 19.2972C10.2627 23.0224 8.67798 28.0602 8.67798 33.3553H11.678ZM16.187 44.4395C13.1977 41.8297 11.678 38.0533 11.678 33.3553H8.67798C8.67798 38.7292 10.4413 43.4057 14.214 46.6994L16.187 44.4395ZM29.8979 48.5616C23.7327 48.5616 19.1862 47.058 16.187 44.4395L14.214 46.6994C17.9376 49.9504 23.2845 51.5616 29.8979 51.5616V48.5616ZM43.6089 44.4395C40.6097 47.058 36.0631 48.5616 29.8979 48.5616V51.5616C36.5114 51.5616 41.8583 49.9504 45.5819 46.6994L43.6089 44.4395ZM48.1179 33.3553C48.1179 38.0533 46.5982 41.8297 43.6089 44.4395L45.5819 46.6994C49.3546 43.4057 51.1179 38.7292 51.1179 33.3553H48.1179ZM43.7667 21.3859C46.7129 24.4235 48.1179 28.6417 48.1179 33.3553H51.1179C51.1179 28.0602 49.5332 23.0224 45.9202 19.2972L43.7667 21.3859ZM32.3081 16.5323C37.4418 16.9562 41.2045 18.7442 43.7667 21.3859L45.9202 19.2972C42.7662 16.0454 38.2785 14.0151 32.555 13.5424L32.3081 16.5323ZM32.7442 10.7707C32.2277 11.6588 31.5699 13.0047 31.0205 14.5286L33.8427 15.5461C34.3305 14.1931 34.9115 13.0114 35.3376 12.2788L32.7442 10.7707ZM30.1083 22.4355C29.5754 20.9232 29.6448 19.094 30.0245 17.2711L27.0875 16.6594C26.6573 18.7252 26.4851 21.1801 27.2788 23.4325L30.1083 22.4355ZM30.2358 22.4966C30.1837 22.515 30.1266 22.4876 30.1083 22.4355L27.2788 23.4325C27.8477 25.0473 29.618 25.8951 31.2328 25.3261L30.2358 22.4966ZM30.2969 22.3691C30.3152 22.4211 30.2879 22.4782 30.2358 22.4966L31.2328 25.3261C32.8475 24.7571 33.6953 22.9869 33.1264 21.3721L30.2969 22.3691ZM30.3752 16.6355C29.8847 18.6056 29.7039 20.6862 30.2969 22.3691L33.1264 21.3721C32.8252 20.5173 32.8455 19.131 33.2863 17.3604L30.3752 16.6355ZM44.4845 20.6897C41.6517 17.7689 37.495 15.8689 31.9296 15.5012L31.7319 18.4947C36.6985 18.8228 40.1071 20.4854 42.331 22.7783L44.4845 20.6897ZM49.1179 33.3553C49.1179 28.4477 47.6528 23.9563 44.4845 20.6897L42.331 22.7783C44.8332 25.3582 46.1179 29.0304 46.1179 33.3553H49.1179ZM44.2666 45.1928C47.5168 42.3552 49.1179 38.2789 49.1179 33.3553H46.1179C46.1179 37.6012 44.7615 40.7782 42.2935 42.9329L44.2666 45.1928ZM29.8979 49.5616C36.2127 49.5616 41.026 48.0221 44.2666 45.1928L42.2935 42.9329C39.7768 45.1302 35.7635 46.5616 29.8979 46.5616V49.5616ZM15.5293 45.1928C18.7699 48.0221 23.5831 49.5616 29.8979 49.5616V46.5616C24.0324 46.5616 20.0191 45.1302 17.5023 42.9329L15.5293 45.1928ZM10.678 33.3553C10.678 38.2789 12.2791 42.3552 15.5293 45.1928L17.5023 42.9329C15.0344 40.7782 13.678 37.6012 13.678 33.3553H10.678ZM15.3114 20.6897C12.143 23.9563 10.678 28.4477 10.678 33.3553H13.678C13.678 29.0304 14.9627 25.3582 17.4649 22.7783L15.3114 20.6897ZM28.4888 15.4667C22.611 15.7302 18.2502 17.6596 15.3114 20.6897L17.4649 22.7783C19.7699 20.4018 23.3508 18.7 28.6231 18.4637L28.4888 15.4667Z" fill="#F8F9FA" mask="url(#path-1-outside-1_694_7419)"/>
<path d="M48.72 33.4636C48.72 43.0842 42.4795 49.1698 30 49.1698C17.5205 49.1698 11.28 43.0842 11.28 33.4636C11.28 23.843 17.0196 16.0439 30 16.0439C42.9804 16.0439 48.72 23.843 48.72 33.4636Z" fill="#FA5252" stroke="#212529" stroke-width="2" stroke-linecap="round"/>
<g style="mix-blend-mode:multiply">
<path fill-rule="evenodd" clip-rule="evenodd" d="M28.6655 48.2578C39.57 47.7468 45.0229 42.1136 45.0229 33.4452C45.0229 24.761 39.9894 17.6466 28.6655 17.0195C29.2031 16.9897 29.7549 16.9746 30.321 16.9746C42.8112 16.9746 48.3339 24.3487 48.3339 33.4452C48.3339 42.5417 42.3292 48.2958 30.321 48.2958C29.7559 48.2958 29.2041 48.283 28.6655 48.2578Z" fill="#FA5252"/>
</g>
<g style="mix-blend-mode:soft-light" opacity="0.4">
<path fill-rule="evenodd" clip-rule="evenodd" d="M30.8922 48.2759C19.6872 47.9004 14.0841 42.2322 14.0841 33.4452C14.0841 24.6466 19.251 17.4594 30.8922 16.9981C30.4981 16.9825 30.0965 16.9746 29.6875 16.9746C17.1973 16.9746 11.6746 24.3487 11.6746 33.4452C11.6746 42.5417 17.6793 48.2958 29.6875 48.2958C30.096 48.2958 30.4976 48.2891 30.8922 48.2759Z" fill="#F8F9FA"/>
</g>
<path d="M24.953 22.2393C26.4553 22.7817 30.5365 23.5412 34.8431 22.2393" stroke="#212529" stroke-width="2" stroke-linecap="round"/>
<path d="M32.7598 10.8291C31.3958 13.1746 28.9952 18.7947 30.3046 22.511" stroke="#212529" stroke-width="2.8" stroke-linecap="round"/>
</svg>
