<svg width="60" height="60" viewBox="0 0 60 60" fill="none" xmlns="http://www.w3.org/2000/svg">
<mask id="path-1-outside-1_694_6398" maskUnits="userSpaceOnUse" x="2.81726" y="7.45605" width="54" height="44" fill="black">
<rect fill="white" x="2.81726" y="7.45605" width="54" height="44"/>
<path fill-rule="evenodd" clip-rule="evenodd" d="M25.0413 10.6652C31.5007 8.65292 37.1762 9.501 39.8892 10.6962C40.4154 10.928 40.8617 11.3232 41.2308 11.7445C41.6045 12.1709 41.934 12.6648 42.2169 13.1468C42.601 13.8014 42.9309 14.494 43.1677 15.0003C45.3848 16.0152 47.2739 17.3897 48.856 18.9405C52.3996 22.4141 54.3997 26.7645 55.1586 29.9385C55.2003 30.1128 55.1877 30.2957 55.1225 30.4626C53.8605 33.6942 51.8569 37.4791 48.5938 40.4621C46.8957 42.0144 44.8665 43.3399 42.4448 44.258C42.3976 44.3172 42.3487 44.3788 42.2982 44.4426L42.1742 44.5993L42.1741 44.5994L42.1739 44.5997C41.7775 45.1008 41.316 45.6842 40.822 46.2483C40.2767 46.8709 39.6688 47.4969 39.0308 47.9862C38.4034 48.4672 37.6729 48.8738 36.8874 48.9458C34.5994 49.1554 32.1553 49.1947 30.0364 49.0567C27.96 48.9215 26.0643 48.6095 24.9667 48.0393C24.6785 47.8896 24.513 47.5773 24.5509 47.2547C24.5888 46.9322 24.8223 46.6668 25.1374 46.588C25.3799 46.5274 25.7993 46.3478 26.3483 46.0558C26.8804 45.7728 27.4833 45.4119 28.0748 45.0275C28.2693 44.9012 28.4616 44.7729 28.6487 44.6448C25.2086 43.4915 22.3976 41.4756 20.123 39.5049C18.9978 38.5301 17.9647 37.5291 17.0655 36.6579C16.5999 36.2068 16.1703 35.7905 15.7825 35.4307C15.1936 34.8844 14.6982 34.4638 14.2746 34.1822C13.8341 33.8895 13.5804 33.8224 13.4577 33.8224C12.9725 33.8224 12.4872 34.0363 11.9603 34.4707C11.4275 34.91 10.9267 35.5127 10.4148 36.1714C10.3272 36.284 10.2383 36.3999 10.1483 36.517C9.7417 37.0464 9.31411 37.6032 8.89747 38.0208C8.4231 38.4963 7.67659 39.0923 6.74156 38.8948C6.37457 38.8172 6.1111 38.5969 5.93613 38.3879C5.7618 38.1797 5.6328 37.9337 5.5334 37.6932C5.33445 37.2118 5.19257 36.5992 5.08895 35.9394C4.87983 34.6079 4.79887 32.8967 4.82063 31.2034C4.84243 29.5077 4.96785 27.7875 5.18587 26.433C5.29424 25.7598 5.43036 25.1454 5.60072 24.6601C5.68556 24.4184 5.78892 24.1794 5.91926 23.9726C6.04068 23.78 6.24129 23.5252 6.55801 23.3805C7.06213 23.1502 7.54986 23.2603 7.91188 23.45C8.25065 23.6276 8.54785 23.9053 8.79747 24.1764C9.1981 24.6116 9.62956 25.2064 10.0517 25.7882L10.052 25.7886C10.1535 25.9286 10.2546 26.0679 10.3545 26.204C10.8974 26.9435 11.4409 27.6399 12.004 28.1506C12.5751 28.6688 13.0514 28.8898 13.4577 28.8898C13.5136 28.8898 13.6569 28.8718 13.9265 28.5601C14.2012 28.2425 14.4949 27.7475 14.8515 27.0545C15.0199 26.7273 15.1988 26.3623 15.3915 25.969L15.3916 25.9689L15.3916 25.9689C15.983 24.7621 16.7051 23.2888 17.6561 21.8211C19.6888 18.6844 22.8202 15.4725 28.282 14.0082C28.0539 13.787 27.7823 13.5675 27.4832 13.3581C26.6002 12.7398 25.6073 12.2971 25.0879 12.17C24.747 12.0865 24.5036 11.7861 24.4928 11.4353C24.4819 11.0845 24.7062 10.7696 25.0413 10.6652ZM40.9976 14.1615C38.7137 13.4333 36.1327 13.0751 33.237 13.2403C32.0848 13.3061 31.0088 13.4359 30.0031 13.6211C29.9275 13.5122 29.8471 13.408 29.7641 13.3088C29.3786 12.8479 28.885 12.4321 28.3795 12.0781C28.1347 11.9067 27.8796 11.7447 27.623 11.5951C32.833 10.449 37.1933 11.216 39.2592 12.1261C39.496 12.2304 39.7653 12.4429 40.0555 12.7742C40.3412 13.1003 40.6146 13.5038 40.8692 13.9376C40.913 14.0124 40.9558 14.0871 40.9976 14.1615ZM29.2075 15.5866C23.9295 16.8625 21.0231 19.8579 19.1313 22.7771C18.2432 24.1477 17.5899 25.4802 17.0063 26.6706L17.0063 26.6706L17.0062 26.6708C16.8029 27.0855 16.608 27.483 16.4146 27.8589C16.0543 28.559 15.6799 29.22 15.256 29.7101C14.8269 30.2062 14.2409 30.6476 13.4577 30.6476C12.4078 30.6476 11.5217 30.0866 10.8229 29.4526C10.1158 28.8112 9.48159 27.9854 8.93749 27.2443C8.81796 27.0815 8.70367 26.9242 8.59391 26.7731L8.59387 26.773C8.17871 26.2015 7.82837 25.7192 7.50415 25.367C7.42216 25.278 7.35147 25.2083 7.29168 25.1544C7.28124 25.1815 7.27045 25.2108 7.25937 25.2424C7.13852 25.5866 7.02236 26.0852 6.92142 26.7124C6.7208 27.9587 6.59942 29.5891 6.57838 31.226C6.5573 32.8654 6.63746 34.469 6.82555 35.6667C6.92054 36.2715 7.03629 36.7272 7.15801 37.0217C7.17667 37.0669 7.19403 37.1047 7.20966 37.136C7.31467 37.0811 7.46071 36.972 7.65303 36.7792C7.98129 36.4502 8.31917 36.011 8.72154 35.488L8.72158 35.488L8.72229 35.487C8.81975 35.3604 8.92099 35.2288 9.0268 35.0926C9.54118 34.4308 10.1449 33.6892 10.842 33.1144C11.5451 32.5346 12.4151 32.0645 13.4577 32.0645C14.1061 32.0645 14.7177 32.366 15.2476 32.7182C15.7945 33.0817 16.3748 33.5825 16.978 34.1419C17.4192 34.5513 17.8738 34.9921 18.3522 35.456C19.2257 36.3031 20.1785 37.2271 21.2741 38.1763C23.7315 40.3053 26.7142 42.3775 30.3746 43.3241C30.5028 43.2069 30.5992 43.1087 30.6616 43.0329C30.842 42.8139 31.1268 42.7099 31.4058 42.7611C32.5521 42.9716 34.5063 43.1895 36.5893 43.1468C38.6884 43.1038 40.8253 42.7972 42.3982 42.0241C42.6408 41.9049 42.9186 41.9223 43.1391 42.0519C44.7769 41.271 46.1879 40.2798 47.4078 39.1646C50.314 36.5079 52.1708 33.1138 53.3829 30.0816C52.6424 27.2046 50.8017 23.3094 47.6255 20.1959C46.2164 18.8146 44.5439 17.5858 42.5819 16.6662L29.6977 15.8037C29.5077 15.791 29.3363 15.7108 29.2075 15.5866ZM30.5768 45.1804C30.0864 45.5552 29.5123 45.957 28.9262 46.3378C28.4589 46.6414 27.9787 46.9352 27.5217 47.1938C28.2593 47.3289 29.144 47.4327 30.138 47.4974C32.1694 47.6297 34.5317 47.5925 36.7449 47.3897C37.1019 47.357 37.5495 47.1529 38.08 46.7461C38.5999 46.3476 39.1298 45.8088 39.6465 45.2188C39.6935 45.1652 39.7402 45.1113 39.7866 45.0573C38.2007 45.4181 36.4722 45.6167 34.5886 45.6167C33.1727 45.6167 31.8367 45.4591 30.5768 45.1804ZM7.42535 24.8831C7.42539 24.8833 7.4237 24.8856 7.42016 24.8895C7.42354 24.8849 7.42531 24.883 7.42535 24.8831Z"/>
</mask>
<path fill-rule="evenodd" clip-rule="evenodd" d="M25.0413 10.6652C31.5007 8.65292 37.1762 9.501 39.8892 10.6962C40.4154 10.928 40.8617 11.3232 41.2308 11.7445C41.6045 12.1709 41.934 12.6648 42.2169 13.1468C42.601 13.8014 42.9309 14.494 43.1677 15.0003C45.3848 16.0152 47.2739 17.3897 48.856 18.9405C52.3996 22.4141 54.3997 26.7645 55.1586 29.9385C55.2003 30.1128 55.1877 30.2957 55.1225 30.4626C53.8605 33.6942 51.8569 37.4791 48.5938 40.4621C46.8957 42.0144 44.8665 43.3399 42.4448 44.258C42.3976 44.3172 42.3487 44.3788 42.2982 44.4426L42.1742 44.5993L42.1741 44.5994L42.1739 44.5997C41.7775 45.1008 41.316 45.6842 40.822 46.2483C40.2767 46.8709 39.6688 47.4969 39.0308 47.9862C38.4034 48.4672 37.6729 48.8738 36.8874 48.9458C34.5994 49.1554 32.1553 49.1947 30.0364 49.0567C27.96 48.9215 26.0643 48.6095 24.9667 48.0393C24.6785 47.8896 24.513 47.5773 24.5509 47.2547C24.5888 46.9322 24.8223 46.6668 25.1374 46.588C25.3799 46.5274 25.7993 46.3478 26.3483 46.0558C26.8804 45.7728 27.4833 45.4119 28.0748 45.0275C28.2693 44.9012 28.4616 44.7729 28.6487 44.6448C25.2086 43.4915 22.3976 41.4756 20.123 39.5049C18.9978 38.5301 17.9647 37.5291 17.0655 36.6579C16.5999 36.2068 16.1703 35.7905 15.7825 35.4307C15.1936 34.8844 14.6982 34.4638 14.2746 34.1822C13.8341 33.8895 13.5804 33.8224 13.4577 33.8224C12.9725 33.8224 12.4872 34.0363 11.9603 34.4707C11.4275 34.91 10.9267 35.5127 10.4148 36.1714C10.3272 36.284 10.2383 36.3999 10.1483 36.517C9.7417 37.0464 9.31411 37.6032 8.89747 38.0208C8.4231 38.4963 7.67659 39.0923 6.74156 38.8948C6.37457 38.8172 6.1111 38.5969 5.93613 38.3879C5.7618 38.1797 5.6328 37.9337 5.5334 37.6932C5.33445 37.2118 5.19257 36.5992 5.08895 35.9394C4.87983 34.6079 4.79887 32.8967 4.82063 31.2034C4.84243 29.5077 4.96785 27.7875 5.18587 26.433C5.29424 25.7598 5.43036 25.1454 5.60072 24.6601C5.68556 24.4184 5.78892 24.1794 5.91926 23.9726C6.04068 23.78 6.24129 23.5252 6.55801 23.3805C7.06213 23.1502 7.54986 23.2603 7.91188 23.45C8.25065 23.6276 8.54785 23.9053 8.79747 24.1764C9.1981 24.6116 9.62956 25.2064 10.0517 25.7882L10.052 25.7886C10.1535 25.9286 10.2546 26.0679 10.3545 26.204C10.8974 26.9435 11.4409 27.6399 12.004 28.1506C12.5751 28.6688 13.0514 28.8898 13.4577 28.8898C13.5136 28.8898 13.6569 28.8718 13.9265 28.5601C14.2012 28.2425 14.4949 27.7475 14.8515 27.0545C15.0199 26.7273 15.1988 26.3623 15.3915 25.969L15.3916 25.9689L15.3916 25.9689C15.983 24.7621 16.7051 23.2888 17.6561 21.8211C19.6888 18.6844 22.8202 15.4725 28.282 14.0082C28.0539 13.787 27.7823 13.5675 27.4832 13.3581C26.6002 12.7398 25.6073 12.2971 25.0879 12.17C24.747 12.0865 24.5036 11.7861 24.4928 11.4353C24.4819 11.0845 24.7062 10.7696 25.0413 10.6652ZM40.9976 14.1615C38.7137 13.4333 36.1327 13.0751 33.237 13.2403C32.0848 13.3061 31.0088 13.4359 30.0031 13.6211C29.9275 13.5122 29.8471 13.408 29.7641 13.3088C29.3786 12.8479 28.885 12.4321 28.3795 12.0781C28.1347 11.9067 27.8796 11.7447 27.623 11.5951C32.833 10.449 37.1933 11.216 39.2592 12.1261C39.496 12.2304 39.7653 12.4429 40.0555 12.7742C40.3412 13.1003 40.6146 13.5038 40.8692 13.9376C40.913 14.0124 40.9558 14.0871 40.9976 14.1615ZM29.2075 15.5866C23.9295 16.8625 21.0231 19.8579 19.1313 22.7771C18.2432 24.1477 17.5899 25.4802 17.0063 26.6706L17.0063 26.6706L17.0062 26.6708C16.8029 27.0855 16.608 27.483 16.4146 27.8589C16.0543 28.559 15.6799 29.22 15.256 29.7101C14.8269 30.2062 14.2409 30.6476 13.4577 30.6476C12.4078 30.6476 11.5217 30.0866 10.8229 29.4526C10.1158 28.8112 9.48159 27.9854 8.93749 27.2443C8.81796 27.0815 8.70367 26.9242 8.59391 26.7731L8.59387 26.773C8.17871 26.2015 7.82837 25.7192 7.50415 25.367C7.42216 25.278 7.35147 25.2083 7.29168 25.1544C7.28124 25.1815 7.27045 25.2108 7.25937 25.2424C7.13852 25.5866 7.02236 26.0852 6.92142 26.7124C6.7208 27.9587 6.59942 29.5891 6.57838 31.226C6.5573 32.8654 6.63746 34.469 6.82555 35.6667C6.92054 36.2715 7.03629 36.7272 7.15801 37.0217C7.17667 37.0669 7.19403 37.1047 7.20966 37.136C7.31467 37.0811 7.46071 36.972 7.65303 36.7792C7.98129 36.4502 8.31917 36.011 8.72154 35.488L8.72158 35.488L8.72229 35.487C8.81975 35.3604 8.92099 35.2288 9.0268 35.0926C9.54118 34.4308 10.1449 33.6892 10.842 33.1144C11.5451 32.5346 12.4151 32.0645 13.4577 32.0645C14.1061 32.0645 14.7177 32.366 15.2476 32.7182C15.7945 33.0817 16.3748 33.5825 16.978 34.1419C17.4192 34.5513 17.8738 34.9921 18.3522 35.456C19.2257 36.3031 20.1785 37.2271 21.2741 38.1763C23.7315 40.3053 26.7142 42.3775 30.3746 43.3241C30.5028 43.2069 30.5992 43.1087 30.6616 43.0329C30.842 42.8139 31.1268 42.7099 31.4058 42.7611C32.5521 42.9716 34.5063 43.1895 36.5893 43.1468C38.6884 43.1038 40.8253 42.7972 42.3982 42.0241C42.6408 41.9049 42.9186 41.9223 43.1391 42.0519C44.7769 41.271 46.1879 40.2798 47.4078 39.1646C50.314 36.5079 52.1708 33.1138 53.3829 30.0816C52.6424 27.2046 50.8017 23.3094 47.6255 20.1959C46.2164 18.8146 44.5439 17.5858 42.5819 16.6662L29.6977 15.8037C29.5077 15.791 29.3363 15.7108 29.2075 15.5866ZM30.5768 45.1804C30.0864 45.5552 29.5123 45.957 28.9262 46.3378C28.4589 46.6414 27.9787 46.9352 27.5217 47.1938C28.2593 47.3289 29.144 47.4327 30.138 47.4974C32.1694 47.6297 34.5317 47.5925 36.7449 47.3897C37.1019 47.357 37.5495 47.1529 38.08 46.7461C38.5999 46.3476 39.1298 45.8088 39.6465 45.2188C39.6935 45.1652 39.7402 45.1113 39.7866 45.0573C38.2007 45.4181 36.4722 45.6167 34.5886 45.6167C33.1727 45.6167 31.8367 45.4591 30.5768 45.1804ZM7.42535 24.8831C7.42539 24.8833 7.4237 24.8856 7.42016 24.8895C7.42354 24.8849 7.42531 24.883 7.42535 24.8831Z" fill="#F8F9FA"/>
<path d="M39.8892 10.6962L40.494 9.32349V9.32349L39.8892 10.6962ZM25.0413 10.6652L24.5952 9.23306V9.23306L25.0413 10.6652ZM41.2309 11.7445L42.3591 10.756L42.3591 10.756L41.2309 11.7445ZM42.2169 13.1468L40.9232 13.9059L40.9232 13.906L42.2169 13.1468ZM43.1677 15.0003L41.809 15.6358C41.9597 15.958 42.22 16.2162 42.5434 16.3642L43.1677 15.0003ZM48.8561 18.9405L47.8061 20.0117V20.0117L48.8561 18.9405ZM55.1587 29.9385L56.6175 29.5897L56.6175 29.5897L55.1587 29.9385ZM55.1225 30.4626L53.7253 29.917V29.917L55.1225 30.4626ZM48.5939 40.4621L47.5818 39.355L48.5939 40.4621ZM42.4449 44.258L41.9132 42.8554C41.6613 42.9509 41.4398 43.1124 41.2719 43.323L42.4449 44.258ZM42.2982 44.4426L41.1224 43.5112L41.122 43.5118L42.2982 44.4426ZM42.1742 44.5993L40.998 43.6685L40.9948 43.6725L42.1742 44.5993ZM42.1741 44.5994L43.3455 45.5365L43.3536 45.5262L42.1741 44.5994ZM42.1739 44.5997L41.0026 43.6626L40.9974 43.6691L42.1739 44.5997ZM40.8221 46.2483L39.6936 45.26L39.6936 45.26L40.8221 46.2483ZM39.0308 47.9862L38.1181 46.7958V46.7958L39.0308 47.9862ZM36.8875 48.9458L37.0243 50.4395H37.0243L36.8875 48.9458ZM30.0365 49.0567L30.134 47.5599H30.134L30.0365 49.0567ZM24.9667 48.0393L24.2752 49.3704L24.2753 49.3704L24.9667 48.0393ZM24.551 47.2547L26.0407 47.4299L26.0407 47.4299L24.551 47.2547ZM25.1374 46.588L24.7736 45.1328H24.7736L25.1374 46.588ZM26.3484 46.0558L27.0528 47.3801H27.0528L26.3484 46.0558ZM28.0749 45.0275L27.2576 43.7697L27.2576 43.7697L28.0749 45.0275ZM28.6487 44.6448L29.4961 45.8825C29.9657 45.561 30.2129 45.0015 30.1344 44.4378C30.0559 43.8742 29.6651 43.4035 29.1256 43.2226L28.6487 44.6448ZM20.1231 39.5049L21.1053 38.3712H21.1053L20.1231 39.5049ZM17.0656 36.6579L18.1095 35.5806L18.1025 35.574L17.0656 36.6579ZM17.0656 36.6579L16.0277 37.7408L16.0287 37.7418L17.0656 36.6579ZM17.0654 36.6577L16.0216 37.735L16.0276 37.7407L17.0654 36.6577ZM15.7825 35.4307L16.8026 34.331L16.8026 34.331L15.7825 35.4307ZM14.2747 34.1822L15.105 32.933L15.105 32.933L14.2747 34.1822ZM11.9604 34.4707L12.9147 35.628V35.628L11.9604 34.4707ZM10.4148 36.1714L11.5992 37.0919L11.5992 37.0919L10.4148 36.1714ZM10.1483 36.517L11.338 37.4307H11.338L10.1483 36.517ZM8.89753 38.0208L7.83565 36.9614L7.83565 36.9614L8.89753 38.0208ZM6.74162 38.8948L6.4315 40.3624H6.4315L6.74162 38.8948ZM5.93619 38.3879L7.08637 37.4251L7.08637 37.4251L5.93619 38.3879ZM5.53346 37.6932L4.14719 38.2661H4.14719L5.53346 37.6932ZM5.08901 35.9394L6.57085 35.7067H6.57085L5.08901 35.9394ZM4.82069 31.2034L6.32057 31.2227L4.82069 31.2034ZM5.18592 26.433L3.70499 26.1946H3.70499L5.18592 26.433ZM5.60078 24.6601L4.18545 24.1633L4.18545 24.1633L5.60078 24.6601ZM5.91932 23.9726L7.18825 24.7725L7.18825 24.7725L5.91932 23.9726ZM6.55807 23.3805L7.18142 24.7449L7.18143 24.7449L6.55807 23.3805ZM7.91194 23.4501L7.21564 24.7786L7.21564 24.7786L7.91194 23.4501ZM8.79753 24.1764L7.69394 25.1924L7.69394 25.1924L8.79753 24.1764ZM10.0517 25.7882L11.2659 24.9074L11.2659 24.9074L10.0517 25.7882ZM10.3545 26.204L9.14542 27.0917L9.14543 27.0917L10.3545 26.204ZM12.004 28.1506L13.0119 27.0397L13.0119 27.0397L12.004 28.1506ZM13.9265 28.5601L15.061 29.5414L15.061 29.5414L13.9265 28.5601ZM14.8516 27.0545L13.5178 26.3682L13.5178 26.3682L14.8516 27.0545ZM15.3915 25.9692L14.0498 25.2983L14.0446 25.3091L15.3915 25.9692ZM15.3916 25.969L16.7333 26.6398L16.7386 26.6291L15.3916 25.969ZM17.6562 21.8211L16.3974 21.0054L16.3974 21.0054L17.6562 21.8211ZM28.2821 14.0082L28.6705 15.457C29.1921 15.3172 29.5982 14.9079 29.7339 14.3852C29.8697 13.8626 29.714 13.3073 29.3264 12.9314L28.2821 14.0082ZM27.4833 13.3581L26.6229 14.5868V14.5868L27.4833 13.3581ZM25.088 12.17L24.7313 13.627L25.088 12.17ZM33.2371 13.2403L33.3225 14.7379L33.2371 13.2403ZM40.9977 14.1615L40.542 15.5906C41.129 15.7778 41.7707 15.587 42.1601 15.1095C42.5495 14.6321 42.6073 13.965 42.3059 13.4277L40.9977 14.1615ZM30.0031 13.6211L28.7711 14.4766C29.1071 14.9605 29.6953 15.2029 30.2747 15.0963L30.0031 13.6211ZM29.7642 13.3088L30.9147 12.3464L30.9147 12.3464L29.7642 13.3088ZM28.3795 12.0781L29.2399 10.8494L29.2399 10.8494L28.3795 12.0781ZM27.6231 11.5951L27.3008 10.1302C26.6973 10.2629 26.237 10.7522 26.1412 11.3626C26.0455 11.9731 26.3338 12.5798 26.8676 12.891L27.6231 11.5951ZM39.2593 12.1261L38.6546 13.4988V13.4988L39.2593 12.1261ZM40.0556 12.7742L41.1838 11.7857L41.1838 11.7857L40.0556 12.7742ZM40.8692 13.9376L42.1629 13.1785L42.1629 13.1784L40.8692 13.9376ZM29.2076 15.5866L30.2488 14.5068C29.8795 14.1507 29.3538 14.008 28.8551 14.1286L29.2076 15.5866ZM19.1314 22.7771L17.8726 21.9614V21.9614L19.1314 22.7771ZM17.0064 26.6706L18.348 27.3415L18.3532 27.3309L17.0064 26.6706ZM17.0063 26.6706L15.6647 25.9998L15.6595 26.0103L17.0063 26.6706ZM16.4147 27.8589L15.0809 27.1725V27.1725L16.4147 27.8589ZM15.256 29.7101L16.3905 30.6915L16.3905 30.6915L15.256 29.7101ZM10.8229 29.4526L9.81509 30.5636L10.8229 29.4526ZM8.93755 27.2443L10.1467 26.3566L10.1467 26.3566L8.93755 27.2443ZM8.59404 26.7732L7.37127 27.642C7.37431 27.6463 7.37738 27.6505 7.38046 27.6548L8.59404 26.7732ZM8.59397 26.7731L9.81674 25.9043C9.81262 25.8985 9.80846 25.8927 9.80426 25.887L8.59397 26.7731ZM8.59394 26.773L7.38034 27.6546L7.38364 27.6591L8.59394 26.773ZM7.50421 25.367L8.6078 24.3511L8.60779 24.3511L7.50421 25.367ZM7.29173 25.1544L8.29582 24.0401C7.9289 23.7094 7.42273 23.5806 6.94241 23.6957C6.46208 23.8107 6.06916 24.1548 5.89179 24.6157L7.29173 25.1544ZM7.25943 25.2424L5.84411 24.7455L5.84411 24.7455L7.25943 25.2424ZM6.92147 26.7124L8.40241 26.9508L8.40241 26.9508L6.92147 26.7124ZM6.57843 31.226L8.07831 31.2453L6.57843 31.226ZM6.82561 35.6667L8.30745 35.434L6.82561 35.6667ZM7.15807 37.0217L5.7718 37.5947L5.7718 37.5947L7.15807 37.0217ZM7.20972 37.136L5.8676 37.8058C6.04745 38.1662 6.36464 38.4391 6.7478 38.5631C7.13096 38.6871 7.54789 38.6518 7.90478 38.4652L7.20972 37.136ZM7.65309 36.7792L8.71496 37.8387L8.71496 37.8387L7.65309 36.7792ZM8.7216 35.488L7.55347 34.547C7.54646 34.5557 7.53954 34.5645 7.53272 34.5734L8.7216 35.488ZM8.72164 35.488L9.88977 36.4289C9.89679 36.4202 9.9037 36.4115 9.91052 36.4026L8.72164 35.488ZM9.02686 35.0926L10.2112 36.0131L10.2112 36.0131L9.02686 35.0926ZM10.8421 33.1144L9.88779 31.9571H9.88779L10.8421 33.1144ZM15.2477 32.7182L16.078 31.469L16.078 31.469L15.2477 32.7182ZM16.978 34.1419L15.9579 35.2416L15.9579 35.2416L16.978 34.1419ZM18.3523 35.456L17.308 36.5328L18.3523 35.456ZM21.2741 38.1763L22.2563 37.0426V37.0426L21.2741 38.1763ZM30.3747 43.3241L29.9991 44.7763C30.4902 44.9033 31.0122 44.7735 31.3866 44.4313L30.3747 43.3241ZM30.6617 43.0329L31.8196 43.9865L31.8196 43.9864L30.6617 43.0329ZM31.4059 42.7611L31.6769 41.2858L31.6769 41.2858L31.4059 42.7611ZM36.5894 43.1468L36.5586 41.6471L36.5894 43.1468ZM42.3982 42.0241L43.0599 43.3703H43.0599L42.3982 42.0241ZM43.1391 42.0519L42.3791 43.3451C42.8085 43.5974 43.3351 43.6202 43.7847 43.4058L43.1391 42.0519ZM47.4078 39.1646L48.4199 40.2717L47.4078 39.1646ZM53.383 30.0816L54.7758 30.6384C54.8941 30.3424 54.9151 30.0164 54.8356 29.7076L53.383 30.0816ZM47.6255 20.1959L48.6756 19.1247L47.6255 20.1959ZM42.582 16.6662L43.2186 15.308C43.0499 15.2289 42.868 15.1819 42.6821 15.1695L42.582 16.6662ZM29.6977 15.8037L29.7979 14.3071H29.7979L29.6977 15.8037ZM28.9262 46.3378L29.7435 47.5956L28.9262 46.3378ZM30.5768 45.1804L30.9007 43.7158C30.469 43.6203 30.0172 43.7202 29.6659 43.9887L30.5768 45.1804ZM27.5217 47.1938L26.7829 45.8884C26.2336 46.1992 25.9377 46.8207 26.0426 47.443C26.1474 48.0654 26.6307 48.5556 27.2515 48.6693L27.5217 47.1938ZM30.1381 47.4974L30.2355 46.0006H30.2355L30.1381 47.4974ZM36.7449 47.3897L36.6081 45.896H36.6081L36.7449 47.3897ZM38.0801 46.7461L38.9927 47.9365L38.0801 46.7461ZM39.6466 45.2188L40.775 46.2071L40.775 46.2071L39.6466 45.2188ZM39.7866 45.0573L40.9244 46.0348C41.3462 45.5438 41.4055 44.8376 41.0714 44.2831C40.7373 43.7287 40.0852 43.4511 39.4539 43.5947L39.7866 45.0573ZM7.4254 24.8831L5.96406 25.2215L5.96452 25.2235L7.4254 24.8831ZM7.42022 24.8895L6.21161 24.0011C5.73808 24.6453 5.85305 25.5477 6.47299 26.0526C7.09293 26.5575 7.99991 26.4874 8.53491 25.8932L7.42022 24.8895ZM40.494 9.32349C37.4231 7.97066 31.3722 7.12187 24.5952 9.23306L25.4875 12.0973C31.6293 10.184 36.9294 11.0314 39.2845 12.0689L40.494 9.32349ZM42.3591 10.756C41.9142 10.2482 41.2979 9.67765 40.494 9.32349L39.2845 12.0689C39.5329 12.1783 39.8093 12.3982 40.1027 12.7329L42.3591 10.756ZM43.5106 12.3876C43.2007 11.8595 42.8171 11.2788 42.3591 10.756L40.1027 12.7329C40.3919 13.0631 40.6675 13.4703 40.9232 13.9059L43.5106 12.3876ZM44.5265 14.3649C44.2882 13.8554 43.9331 13.1076 43.5106 12.3876L40.9232 13.906C41.269 14.4953 41.5737 15.1327 41.809 15.6358L44.5265 14.3649ZM42.5434 16.3642C44.5861 17.2992 46.334 18.5688 47.8061 20.0117L49.9061 17.8693C48.214 16.2106 46.1837 14.7312 43.792 13.6364L42.5434 16.3642ZM47.8061 20.0117C51.1206 23.2607 52.9969 27.3477 53.6998 30.2873L56.6175 29.5897C55.8026 26.1813 53.6787 21.5674 49.9061 17.8693L47.8061 20.0117ZM53.6998 30.2873C53.6703 30.1641 53.6792 30.0349 53.7253 29.917L56.5198 31.0083C56.6962 30.5564 56.7303 30.0615 56.6175 29.5897L53.6998 30.2873ZM53.7253 29.917C52.5083 33.0333 50.6111 36.5857 47.5818 39.355L49.6059 41.5692C53.1028 38.3726 55.2128 34.3551 56.5198 31.0083L53.7253 29.917ZM47.5818 39.355C46.0114 40.7905 44.1425 42.0102 41.9132 42.8554L42.9766 45.6606C45.5905 44.6696 47.7801 43.2383 49.6059 41.5692L47.5818 39.355ZM43.4741 45.3739C43.5239 45.311 43.5718 45.2507 43.6179 45.1929L41.2719 43.323C41.2235 43.3838 41.1736 43.4466 41.1224 43.5112L43.4741 45.3739ZM43.3505 45.5301L43.4745 45.3734L41.122 43.5118L40.998 43.6685L43.3505 45.5301ZM43.3536 45.5262L43.3537 45.526L40.9948 43.6725L40.9946 43.6727L43.3536 45.5262ZM43.3452 45.5367L43.3454 45.5365L41.0028 43.6624L41.0026 43.6626L43.3452 45.5367ZM41.9505 47.2366C42.473 46.6399 42.957 46.0277 43.3504 45.5302L40.9974 43.6691C40.5982 44.1739 40.1592 44.7285 39.6936 45.26L41.9505 47.2366ZM39.9435 49.1766C40.695 48.6003 41.3777 47.8906 41.9505 47.2366L39.6936 45.26C39.1758 45.8513 38.6428 46.3935 38.1181 46.7958L39.9435 49.1766ZM37.0243 50.4395C38.2209 50.3299 39.223 49.7289 39.9435 49.1766L38.1181 46.7958C37.5838 47.2054 37.1249 47.4178 36.7506 47.452L37.0243 50.4395ZM29.939 50.5535C32.1418 50.697 34.6645 50.6557 37.0243 50.4395L36.7506 47.452C34.5344 47.6551 32.1689 47.6924 30.134 47.5599L29.939 50.5535ZM24.2753 49.3704C25.6784 50.0993 27.8592 50.4181 29.939 50.5535L30.134 47.5599C28.061 47.4249 26.4503 47.1196 25.6582 46.7082L24.2753 49.3704ZM23.0612 47.0795C22.9505 48.0213 23.4338 48.9333 24.2752 49.3704L25.6582 46.7082C25.9233 46.8459 26.0756 47.1332 26.0407 47.4299L23.0612 47.0795ZM24.7736 45.1328C23.8537 45.3628 23.172 46.1378 23.0612 47.0796L26.0407 47.4299C26.0058 47.7266 25.791 47.9708 25.5012 48.0432L24.7736 45.1328ZM25.6439 44.7315C25.3948 44.864 25.1881 44.964 25.0277 45.034C24.9479 45.0689 24.8847 45.094 24.8375 45.1113C24.788 45.1293 24.7685 45.1341 24.7736 45.1328L25.5012 48.0433C25.9336 47.9351 26.4901 47.6794 27.0528 47.3801L25.6439 44.7315ZM27.2576 43.7697C26.6935 44.1363 26.1288 44.4736 25.6439 44.7315L27.0528 47.3801C27.6321 47.0719 28.2732 46.6875 28.8921 46.2854L27.2576 43.7697ZM27.8013 43.4071C27.6243 43.5283 27.4421 43.6499 27.2576 43.7697L28.8921 46.2854C29.0966 46.1525 29.299 46.0175 29.4961 45.8825L27.8013 43.4071ZM29.1256 43.2226C25.9473 42.157 23.3078 40.2795 21.1053 38.3712L19.1409 40.6386C21.4875 42.6717 24.4701 44.8259 28.1719 46.067L29.1256 43.2226ZM21.1053 38.3712C20.0163 37.4278 19.0118 36.455 18.1094 35.5807L16.0219 37.7352C16.9178 38.6032 17.9795 39.6325 19.1409 40.6386L21.1053 38.3712ZM18.1025 35.574L18.1024 35.5739L16.0287 37.7418L16.0288 37.7419L18.1025 35.574ZM18.1034 35.5749L18.1033 35.5748L16.0276 37.7407L16.0277 37.7408L18.1034 35.5749ZM18.1092 35.5805C17.647 35.1326 17.2048 34.7041 16.8026 34.331L14.7624 36.5304C15.1359 36.8768 15.5529 37.2808 16.0217 37.735L18.1092 35.5805ZM16.8026 34.331C16.2018 33.7737 15.6338 33.2845 15.105 32.933L13.4444 35.4315C13.7627 35.6431 14.1854 35.9952 14.7624 36.5304L16.8026 34.331ZM15.105 32.933C14.5895 32.5904 14.03 32.3224 13.4578 32.3224V35.3224C13.3557 35.3224 13.2817 35.309 13.2436 35.3003C13.2036 35.2913 13.1854 35.2834 13.1914 35.2858C13.1969 35.288 13.2207 35.298 13.2642 35.3215C13.3075 35.345 13.3672 35.3802 13.4444 35.4315L15.105 32.933ZM13.4578 32.3224C12.4981 32.3224 11.6847 32.7539 11.0061 33.3134L12.9147 35.628C13.2898 35.3187 13.4471 35.3224 13.4578 35.3224V32.3224ZM11.0061 33.3134C10.3329 33.8685 9.74401 34.5901 9.23048 35.2509L11.5992 37.0919C12.1095 36.4353 12.5223 35.9516 12.9147 35.628L11.0061 33.3134ZM9.23048 35.2509C9.13979 35.3676 9.04817 35.4869 8.95868 35.6034L11.338 37.4307C11.4285 37.3129 11.5147 37.2005 11.5992 37.0919L9.23048 35.2509ZM8.95868 35.6034C8.53529 36.1547 8.16979 36.6265 7.83565 36.9614L9.9594 39.0802C10.4585 38.58 10.9482 37.9382 11.338 37.4307L8.95868 35.6034ZM7.83565 36.9614C7.64396 37.1535 7.47017 37.2932 7.31457 37.372C7.18059 37.4399 7.10995 37.4395 7.05173 37.4272L6.4315 40.3624C8.19536 40.7351 9.4612 39.5796 9.95941 39.0802L7.83565 36.9614ZM7.05173 37.4272C7.06572 37.4301 7.07896 37.4346 7.09026 37.4395C7.10121 37.4444 7.10799 37.4486 7.11053 37.4504C7.11288 37.452 7.11135 37.4512 7.10647 37.4467C7.10155 37.4421 7.09466 37.435 7.08637 37.4251L4.78601 39.3508C5.09395 39.7186 5.62889 40.1928 6.4315 40.3624L7.05173 37.4272ZM7.08637 37.4251C7.0453 37.376 6.9862 37.2811 6.91973 37.1202L4.14719 38.2661C4.27951 38.5863 4.47842 38.9834 4.78601 39.3508L7.08637 37.4251ZM6.91973 37.1202C6.78662 36.7982 6.66706 36.3194 6.57085 35.7067L3.60717 36.1722C3.7182 36.8791 3.88239 37.6254 4.14719 38.2661L6.91973 37.1202ZM6.57085 35.7067C6.37966 34.4894 6.29939 32.87 6.32057 31.2227L3.32081 31.1841C3.29846 32.9234 3.38012 34.7264 3.60717 36.1722L6.57085 35.7067ZM6.32057 31.2227C6.34172 29.5772 6.46369 27.9336 6.66686 26.6714L3.70499 26.1946C3.47212 27.6413 3.34326 29.4382 3.32081 31.1841L6.32057 31.2227ZM6.66686 26.6714C6.76888 26.0376 6.88796 25.522 7.0161 25.157L4.18545 24.1633C3.97287 24.7688 3.81972 25.4819 3.70499 26.1946L6.66686 26.6714ZM7.0161 25.157C7.08032 24.974 7.13984 24.8493 7.18825 24.7725L4.65039 23.1728C4.43813 23.5095 4.29092 23.8628 4.18545 24.1633L7.0161 25.157ZM7.18825 24.7725C7.19894 24.7556 7.20817 24.7424 7.21603 24.7321C7.22393 24.7218 7.22903 24.7164 7.23085 24.7145C7.23455 24.7108 7.21869 24.7278 7.18142 24.7449L5.93471 22.0162C5.23323 22.3367 4.83856 22.8742 4.65039 23.1728L7.18825 24.7725ZM7.18143 24.7449C7.18158 24.7448 7.17463 24.7477 7.1629 24.7496C7.15186 24.7513 7.14432 24.7508 7.14266 24.7507C7.14174 24.7506 7.14806 24.7511 7.16186 24.7555C7.17588 24.76 7.19426 24.7674 7.21564 24.7786L8.60824 22.1215C7.98369 21.7941 6.99243 21.5329 5.93471 22.0162L7.18143 24.7449ZM7.21564 24.7786C7.32588 24.8364 7.48404 24.9643 7.69394 25.1924L9.90112 23.1605C9.61177 22.8462 9.17554 22.4188 8.60824 22.1215L7.21564 24.7786ZM7.69394 25.1924C8.02276 25.5496 8.39901 26.0645 8.83761 26.6691L11.2659 24.9074C10.8602 24.3482 10.3736 23.6737 9.90112 23.1605L7.69394 25.1924ZM8.83761 26.6691C8.93882 26.8086 9.04246 26.9514 9.14542 27.0917L11.5637 25.3163C11.4666 25.184 11.368 25.0481 11.2659 24.9074L8.83761 26.6691ZM9.14543 27.0917C9.68898 27.832 10.3101 28.6392 10.9962 29.2616L13.0119 27.0397C12.5719 26.6406 12.106 26.0549 11.5637 25.3163L9.14543 27.0917ZM10.9962 29.2616C11.6776 29.8798 12.5034 30.3898 13.4578 30.3898V27.3898C13.5328 27.3898 13.5405 27.4111 13.4608 27.3715C13.3764 27.3295 13.2274 27.2352 13.0119 27.0397L10.9962 29.2616ZM13.4578 30.3898C14.1234 30.3898 14.6446 30.0228 15.061 29.5414L12.7921 27.5788C12.7261 27.6551 12.751 27.6058 12.8712 27.5375C12.9365 27.5004 13.0278 27.459 13.1433 27.4293C13.2654 27.3979 13.3754 27.3898 13.4578 27.3898V30.3898ZM15.061 29.5414C15.4634 29.0763 15.8261 28.439 16.1853 27.7409L13.5178 26.3682C13.1639 27.056 12.9391 27.4088 12.7921 27.5788L15.061 29.5414ZM16.1853 27.7409C16.3618 27.398 16.5474 27.0191 16.7385 26.6293L14.0446 25.3091C13.8502 25.7057 13.6782 26.0566 13.5178 26.3682L16.1853 27.7409ZM16.7332 26.64L16.7333 26.6398L14.05 25.2981L14.0499 25.2983L16.7332 26.64ZM16.7386 26.6291C17.3329 25.4164 18.0191 24.0194 18.915 22.6369L16.3974 21.0054C15.3911 22.5582 14.6333 24.1078 14.0447 25.3088L16.7386 26.6291ZM18.915 22.6369C20.8036 19.7225 23.6579 16.8009 28.6705 15.457L27.8937 12.5594C21.9826 14.1441 18.5742 17.6462 16.3974 21.0054L18.915 22.6369ZM26.6229 14.5868C26.871 14.7606 27.0782 14.9302 27.2378 15.085L29.3264 12.9314C29.0298 12.6438 28.6936 12.3745 28.3437 12.1294L26.6229 14.5868ZM24.7313 13.627C25.0272 13.6994 25.8513 14.0465 26.6229 14.5868L28.3437 12.1294C27.3492 11.433 26.1874 10.8948 25.4446 10.713L24.7313 13.627ZM22.9935 11.4818C23.0253 12.506 23.736 13.3834 24.7313 13.627L25.4446 10.713C25.7582 10.7898 25.9821 11.0662 25.9921 11.3888L22.9935 11.4818ZM24.5952 9.23306C23.6169 9.53784 22.9618 10.4575 22.9935 11.4818L25.9921 11.3888C26.0021 11.7115 25.7957 12.0013 25.4875 12.0973L24.5952 9.23306ZM33.3225 14.7379C36.0408 14.5828 38.4381 14.9198 40.542 15.5906L41.4533 12.7324C38.9895 11.9468 36.2247 11.5674 33.1516 11.7428L33.3225 14.7379ZM30.2747 15.0963C31.2158 14.923 32.2295 14.8002 33.3225 14.7379L33.1516 11.7428C31.9402 11.8119 30.8019 11.9488 29.7316 12.1458L30.2747 15.0963ZM31.2352 12.7655C31.1313 12.6158 31.0232 12.4761 30.9147 12.3464L28.6137 14.2713C28.6711 14.3399 28.7238 14.4085 28.7711 14.4766L31.2352 12.7655ZM30.9147 12.3464C30.4176 11.7522 29.8125 11.2504 29.2399 10.8494L27.5192 13.3068C27.9575 13.6138 28.3396 13.9437 28.6137 14.2713L30.9147 12.3464ZM29.2399 10.8494C28.9584 10.6523 28.6681 10.468 28.3786 10.2993L26.8676 12.891C27.0913 13.0214 27.311 13.1611 27.5192 13.3068L29.2399 10.8494ZM27.9454 13.0601C32.8829 11.9739 36.9141 12.7321 38.6546 13.4988L39.864 10.7534C37.4726 9.69992 32.7832 8.92412 27.3008 10.1302L27.9454 13.0601ZM38.6546 13.4988C38.6252 13.4859 38.6394 13.4871 38.695 13.5321C38.749 13.5756 38.8275 13.6487 38.9274 13.7626L41.1838 11.7857C40.818 11.3681 40.3787 10.9802 39.864 10.7534L38.6546 13.4988ZM38.9274 13.7626C39.1286 13.9923 39.348 14.3091 39.5755 14.6968L42.1629 13.1784C41.8813 12.6985 41.554 12.2082 41.1838 11.7857L38.9274 13.7626ZM39.5755 14.6968C39.6142 14.7627 39.6521 14.8289 39.6894 14.8953L42.3059 13.4277C42.2597 13.3452 42.212 13.2621 42.1629 13.1785L39.5755 14.6968ZM28.8551 14.1286C23.1082 15.5178 19.9125 18.8134 17.8726 21.9614L20.3902 23.5928C22.1337 20.9023 24.751 18.2071 29.56 17.0446L28.8551 14.1286ZM17.8726 21.9614C16.9294 23.4169 16.2404 24.8253 15.6595 26.0103L18.3532 27.3309C18.9395 26.135 19.5571 24.8785 20.3902 23.5928L17.8726 21.9614ZM15.6647 25.9998L15.6647 25.9998L18.348 27.3415L18.348 27.3414L15.6647 25.9998ZM15.6595 26.0103C15.4548 26.4279 15.2664 26.8119 15.0809 27.1725L17.7484 28.5452C17.9497 28.154 18.1512 27.743 18.3532 27.3309L15.6595 26.0103ZM15.0809 27.1725C14.7242 27.8658 14.4184 28.3856 14.1216 28.7288L16.3905 30.6915C16.9415 30.0544 17.3846 29.2523 17.7484 28.5452L15.0809 27.1725ZM14.1216 28.7288C13.8258 29.0707 13.6176 29.1477 13.4578 29.1477V32.1477C14.8643 32.1477 15.8281 31.3417 16.3905 30.6915L14.1216 28.7288ZM13.4578 29.1477C12.9576 29.1477 12.4214 28.8775 11.8308 28.3417L9.81509 30.5636C10.6222 31.2958 11.8582 32.1477 13.4578 32.1477V29.1477ZM11.8308 28.3417C11.2464 27.8116 10.6894 27.0959 10.1467 26.3566L7.72843 28.132C8.27386 28.8749 8.98536 29.8109 9.81509 30.5636L11.8308 28.3417ZM10.1467 26.3566C10.0297 26.1973 9.91766 26.043 9.80763 25.8916L7.38046 27.6548C7.4899 27.8054 7.60634 27.9657 7.72844 28.132L10.1467 26.3566ZM9.81681 25.9044L9.81674 25.9043L7.3712 27.6419L7.37127 27.642L9.81681 25.9044ZM9.80426 25.887L9.80423 25.8869L7.38364 27.6591L7.38367 27.6592L9.80426 25.887ZM9.80753 25.8914C9.41123 25.3459 9.00419 24.7817 8.6078 24.3511L6.40062 26.3829C6.65268 26.6568 6.94632 27.0571 7.38034 27.6546L9.80753 25.8914ZM8.60779 24.3511C8.49955 24.2335 8.39572 24.1301 8.29582 24.0401L6.28764 26.2688C6.30734 26.2865 6.34489 26.3224 6.40062 26.383L8.60779 24.3511ZM5.89179 24.6157C5.87581 24.6573 5.8599 24.7005 5.84411 24.7455L8.67475 25.7392C8.68111 25.7211 8.68678 25.7058 8.69167 25.6931L5.89179 24.6157ZM5.84411 24.7455C5.68098 25.2102 5.54779 25.8077 5.44054 26.474L8.40241 26.9508C8.49704 26.3629 8.59617 25.9631 8.67476 25.7392L5.84411 24.7455ZM5.44054 26.474C5.22507 27.8126 5.10025 29.5196 5.07856 31.2067L8.07831 31.2453C8.09871 29.6586 8.21664 28.1049 8.40241 26.9508L5.44054 26.474ZM5.07856 31.2067C5.05689 32.8921 5.13774 34.5875 5.34378 35.8994L8.30745 35.434C8.13729 34.3505 8.05783 32.8388 8.07831 31.2453L5.07856 31.2067ZM5.34378 35.8994C5.44608 36.5508 5.5841 37.1405 5.7718 37.5947L8.54434 36.4488C8.48861 36.314 8.39512 35.9923 8.30745 35.434L5.34378 35.8994ZM5.7718 37.5947C5.80303 37.6702 5.83499 37.7405 5.8676 37.8058L8.55183 36.4661C8.55319 36.4688 8.55042 36.4635 8.54434 36.4488L5.7718 37.5947ZM7.90478 38.4652C8.2002 38.3107 8.46993 38.0843 8.71496 37.8387L6.59121 35.7198C6.52801 35.7831 6.48736 35.8176 6.46855 35.8325C6.45956 35.8396 6.4583 35.84 6.46461 35.8358C6.47064 35.8318 6.48748 35.8209 6.51465 35.8067L7.90478 38.4652ZM8.71496 37.8387C9.12624 37.4264 9.52815 36.8996 9.91048 36.4027L7.53272 34.5734C7.11031 35.1224 6.83646 35.474 6.59121 35.7198L8.71496 37.8387ZM9.88973 36.429L9.88977 36.4289L7.55351 34.547L7.55347 34.547L9.88973 36.429ZM9.91052 36.4026C10.0085 36.2753 10.1078 36.1462 10.2112 36.0131L7.84251 34.1721C7.73383 34.312 7.63015 34.4467 7.53276 34.5733L9.91052 36.4026ZM10.2112 36.0131C10.7231 35.3545 11.2392 34.7311 11.7963 34.2717L9.88779 31.9571C9.05074 32.6473 8.35943 33.507 7.8425 34.1721L10.2112 36.0131ZM11.7963 34.2717C12.3497 33.8154 12.8914 33.5645 13.4578 33.5645V30.5645C11.9389 30.5645 10.7406 31.2539 9.88779 31.9571L11.7963 34.2717ZM13.4578 33.5645C13.658 33.5645 13.9644 33.6664 14.4174 33.9675L16.078 31.469C15.4712 31.0657 14.5544 30.5645 13.4578 30.5645V33.5645ZM14.4174 33.9675C14.8592 34.2611 15.3671 34.6936 15.9579 35.2416L17.9981 33.0422C17.3827 32.4713 16.7299 31.9022 16.078 31.469L14.4174 33.9675ZM15.9579 35.2416C16.3847 35.6376 16.827 36.0664 17.308 36.5328L19.3965 34.3792C18.9208 33.9178 18.4538 33.4649 17.9981 33.0422L15.9579 35.2416ZM17.308 36.5328C18.1791 37.3776 19.1602 38.3295 20.2919 39.31L22.2563 37.0426C21.1969 36.1247 20.2724 35.2286 19.3965 34.3792L17.308 36.5328ZM20.2919 39.31C22.8287 41.5078 26.018 43.7468 29.9991 44.7763L30.7502 41.8718C27.4105 41.0082 24.6344 39.1029 22.2563 37.0426L20.2919 39.31ZM29.5038 42.0793C29.5088 42.0732 29.5012 42.083 29.474 42.1106C29.4482 42.1368 29.4116 42.1721 29.3627 42.2168L31.3866 44.4313C31.537 44.2938 31.6922 44.1411 31.8196 43.9865L29.5038 42.0793ZM31.6769 41.2858C30.8622 41.1362 30.0304 41.4399 29.5038 42.0793L31.8196 43.9864C31.6537 44.1879 31.3916 44.2836 31.135 44.2364L31.6769 41.2858ZM36.5586 41.6471C34.5842 41.6876 32.7313 41.4794 31.6769 41.2858L31.1349 44.2364C32.3731 44.4638 34.4284 44.6914 36.6201 44.6465L36.5586 41.6471ZM41.7366 40.678C40.4565 41.3071 38.58 41.6057 36.5586 41.6471L36.6201 44.6465C38.7969 44.6019 41.1942 44.2873 43.0599 43.3703L41.7366 40.678ZM43.8991 40.7587C43.2577 40.3817 42.4461 40.3292 41.7366 40.678L43.0599 43.3703C42.8356 43.4806 42.5797 43.4629 42.3791 43.3451L43.8991 40.7587ZM43.7847 43.4058C45.5676 42.5558 47.1004 41.4779 48.4199 40.2717L46.3957 38.0575C45.2754 39.0816 43.9863 39.9862 42.4936 40.6979L43.7847 43.4058ZM48.4199 40.2717C51.554 37.4067 53.5172 33.7868 54.7758 30.6384L51.9901 29.5248C50.8245 32.4407 49.0742 35.609 46.3957 38.0575L48.4199 40.2717ZM54.8356 29.7076C54.0375 26.6071 52.0754 22.4573 48.6756 19.1247L46.5755 21.2671C49.5282 24.1614 51.2473 27.8022 51.9303 30.4555L54.8356 29.7076ZM48.6756 19.1247C47.16 17.6391 45.3506 16.3073 43.2186 15.308L41.9453 18.0244C43.7372 18.8643 45.2728 19.9901 46.5755 21.2671L48.6756 19.1247ZM29.5975 17.3004L42.4818 18.1628L42.6821 15.1695L29.7979 14.3071L29.5975 17.3004ZM28.1663 16.6663C28.5416 17.0282 29.0433 17.2633 29.5975 17.3004L29.7979 14.3071C29.9723 14.3187 30.1312 14.3934 30.2488 14.5068L28.1663 16.6663ZM29.7435 47.5956C30.3562 47.1975 30.9622 46.7738 31.4877 46.3721L29.6659 43.9887C29.2106 44.3367 28.6685 44.7164 28.109 45.08L29.7435 47.5956ZM28.2605 48.4993C28.7478 48.2235 29.2543 47.9135 29.7435 47.5956L28.109 45.08C27.6636 45.3694 27.2097 45.6469 26.7829 45.8884L28.2605 48.4993ZM30.2355 46.0006C29.2841 45.9386 28.4591 45.8405 27.7919 45.7184L27.2515 48.6693C28.0596 48.8173 29.004 48.9267 30.0406 48.9943L30.2355 46.0006ZM36.6081 45.896C34.4667 46.0922 32.183 46.1274 30.2355 46.0006L30.0406 48.9943C32.1559 49.132 34.5968 49.0928 36.8818 48.8835L36.6081 45.896ZM37.1674 45.5557C36.9643 45.7114 36.8096 45.803 36.7033 45.8536C36.5942 45.9054 36.5663 45.8998 36.6081 45.896L36.8818 48.8835C37.6502 48.8131 38.3694 48.4144 38.9927 47.9365L37.1674 45.5557ZM38.5182 44.2305C38.0287 44.7894 37.5737 45.2442 37.1674 45.5557L38.9927 47.9365C39.6262 47.4509 40.2309 46.8283 40.775 46.2071L38.5182 44.2305ZM38.6489 44.0798C38.6055 44.1304 38.5619 44.1806 38.5182 44.2306L40.775 46.2071C40.8253 46.1497 40.8751 46.0923 40.9244 46.0348L38.6489 44.0798ZM39.4539 43.5947C37.9827 43.9294 36.366 44.1167 34.5886 44.1167V47.1167C36.5784 47.1167 38.4188 46.9068 40.1194 46.52L39.4539 43.5947ZM34.5886 44.1167C33.2853 44.1167 32.0579 43.9717 30.9007 43.7158L30.2529 46.645C31.6157 46.9464 33.0603 47.1167 34.5886 47.1167V44.1167ZM5.96452 25.2235C5.88666 24.8892 5.94652 24.6212 5.96348 24.5473C5.98853 24.4383 6.02061 24.3553 6.03775 24.3136C6.07301 24.2277 6.10862 24.1643 6.12224 24.1404C6.15392 24.0848 6.18225 24.0436 6.19212 24.0294C6.21697 23.9935 6.23801 23.9666 6.24778 23.9543C6.27082 23.9251 6.29093 23.902 6.30553 23.8858L8.53491 25.8932C8.55305 25.8731 8.57577 25.8469 8.60052 25.8156C8.61115 25.8022 8.63283 25.7744 8.6581 25.7379C8.66817 25.7234 8.69665 25.682 8.72844 25.6262C8.74211 25.6022 8.77775 25.5387 8.81303 25.4528C8.83018 25.411 8.86227 25.328 8.88733 25.219C8.90429 25.1451 8.96415 24.8771 8.88629 24.5428L5.96452 25.2235ZM8.62883 25.7779C8.61873 25.7917 8.60099 25.8153 8.57702 25.8441C8.56819 25.8547 8.54168 25.8864 8.50475 25.9247C8.49533 25.9345 8.43918 25.9935 8.35824 26.0578C8.34413 26.069 8.19712 26.1911 7.97604 26.2784C7.89172 26.3117 7.53796 26.4495 7.08502 26.344C6.82067 26.2824 6.54419 26.1413 6.3204 25.8975C6.10592 25.6639 6.00779 25.4104 5.96406 25.2215L8.88675 24.5448C8.84301 24.3559 8.74488 24.1024 8.53041 23.8687C8.3066 23.625 8.03013 23.4838 7.76577 23.4223C7.31283 23.3167 6.95905 23.4546 6.87471 23.4879C6.6536 23.5751 6.50655 23.6973 6.49238 23.7086C6.41132 23.773 6.355 23.8321 6.34536 23.8421C6.30798 23.8809 6.2808 23.9134 6.27111 23.925C6.2454 23.9559 6.22509 23.9828 6.21161 24.0011L8.62883 25.7779Z" fill="#F8F9FA" mask="url(#path-1-outside-1_694_6398)"/>
<path d="M39.6345 11.5674C41.1603 12.2396 42.3085 15.0841 42.7853 16.049L29.8101 15.1804C29.6575 13.5371 26.6054 11.8786 25.3339 11.5673C31.6278 9.60663 37.1078 10.4543 39.6345 11.5674Z" fill="#FFD8A8" stroke="#212529" stroke-width="1.6" stroke-linecap="round" stroke-linejoin="round"/>
<path d="M36.8765 48.3243C39.1615 48.115 41.7309 43.8566 42.8032 42.8818C39.3525 44.5779 33.7133 44.1247 31.3251 43.6861C30.5063 44.6804 26.7519 47.1614 25.3872 47.5025C27.2637 48.4773 32.3753 48.7367 36.8765 48.3243Z" fill="#FFD8A8" stroke="#212529" stroke-width="1.6" stroke-linecap="round" stroke-linejoin="round"/>
<path d="M33.3474 14.2746C46.6538 13.5155 52.912 24.2264 54.3641 30.2997C51.8929 36.6277 46.5991 44.8946 34.6489 44.8946C22.6987 44.8946 16.6026 33.1002 13.518 33.1002C10.4624 33.1002 8.78665 38.5726 6.9836 38.1916C5.18054 37.8106 5.52326 25.004 6.9836 24.3368C8.44393 23.6695 10.6057 29.9255 13.518 29.9255C16.8745 29.9255 16.7144 15.2235 33.3474 14.2746Z" fill="#FFA94D" stroke="#212529" stroke-width="1.8" stroke-linecap="round" stroke-linejoin="round"/>
<g style="mix-blend-mode:multiply">
<path fill-rule="evenodd" clip-rule="evenodd" d="M10.8261 28.5931C10.1409 27.9216 9.51096 27.0539 8.93535 26.261C7.9905 24.9595 7.19195 23.8596 6.53525 24.1596C6.53003 24.162 6.52482 24.1645 6.51962 24.1672C6.76217 24.4746 7.01617 24.8245 7.28173 25.1903C8.29356 26.584 9.47319 28.2089 10.8261 28.5931ZM5.7565 36.7146C5.94885 37.4619 6.20635 37.9449 6.53525 38.0144C7.35207 38.187 8.14276 37.1584 9.04745 35.9814C10.1398 34.5603 11.3983 32.9231 13.0697 32.9231C13.2304 32.9231 13.3994 32.9551 13.5769 33.0158C12.7289 32.2979 12.0156 31.8523 11.4161 31.8523C9.7447 31.8523 8.48617 33.4896 7.39383 34.9106C6.81347 35.6656 6.28003 36.3596 5.7565 36.7146ZM22.9576 40.9026C25.9639 43.0144 29.6596 44.7174 34.2006 44.7174C46.1508 44.7174 51.4445 36.4505 53.9157 30.1225C52.9475 26.073 49.8426 19.9618 43.9364 16.5635C48.776 20.067 51.3886 25.3984 52.2621 29.0517C49.7909 35.3797 44.4971 43.6466 32.5469 43.6466C28.8058 43.6466 25.6384 42.4907 22.9576 40.9026Z" fill="#CED4DA"/>
</g>
<path d="M43.2593 20.5332C41.8881 22.6148 40.4576 25.4208 40.4576 30.3726C40.4575 35.3244 42.5543 37.3481 43.2593 38.5643" stroke="#212529" stroke-width="1.6" stroke-linecap="round" stroke-linejoin="round"/>
<g style="mix-blend-mode:multiply" opacity="0.5">
<path d="M34.325 27.2593C34.9457 26.0524 36.1782 25.0946 40.4575 27.8213C40.3958 29.583 40.3095 33.3043 40.4575 34.0955C39.3014 35.3636 37.3431 37.6032 35.3426 36.6068C33.1255 35.5025 33.5492 28.7679 34.325 27.2593Z" fill="#CED4DA"/>
</g>
<path d="M34.3251 25.3667C34.9458 24.1598 36.1782 23.202 40.4576 25.9287C40.3959 27.6905 40.3095 31.4117 40.4576 32.2029C39.3014 33.471 37.3432 35.7106 35.3426 34.7142C33.1256 33.6099 33.5493 26.8754 34.3251 25.3667Z" fill="#FFD8A8" stroke="#212529" stroke-width="1.2" stroke-linecap="round" stroke-linejoin="round"/>
<path d="M39.9696 30.2446C38.9891 30.5048 38.0007 30.774 37.0789 31.047" stroke="#212529" stroke-width="1.2" stroke-linecap="round" stroke-linejoin="round"/>
<path d="M39.9799 27.9801C38.8513 27.8827 37.8494 27.7288 37.0788 27.7288" stroke="#212529" stroke-width="1.2" stroke-linecap="round" stroke-linejoin="round"/>
<g style="mix-blend-mode:multiply">
<path d="M28.174 21.5518C27.7717 21.8646 27.1347 22.7184 27.8052 23.6304C27.6041 23.9545 27.195 24.824 27.1682 25.7092C27.1414 26.5943 27.5817 27.3297 27.8052 27.5867C27.5929 27.8885 27.1682 28.7065 27.1682 29.5648C27.1682 30.4232 27.8387 31.1742 28.174 31.4424C27.8387 31.7665 27.1682 32.7098 27.1682 33.8899C27.1682 35.0701 28.0846 35.7004 28.5429 35.8681" stroke="#DEE2E6" stroke-linecap="round" stroke-linejoin="round"/>
</g>
<g style="mix-blend-mode:multiply">
<path d="M23.804 24.1689C23.5488 24.3674 23.1448 24.9091 23.5701 25.4876C23.4425 25.6932 23.183 26.2448 23.166 26.8063C23.149 27.3679 23.4283 27.8344 23.5701 27.9974C23.4354 28.1889 23.166 28.7078 23.166 29.2523C23.166 29.7968 23.5914 30.2733 23.804 30.4434C23.5914 30.649 23.166 31.2474 23.166 31.9961C23.166 32.7448 23.7474 33.1447 24.0381 33.251" stroke="#DEE2E6" stroke-linecap="round" stroke-linejoin="round"/>
</g>
<g style="mix-blend-mode:soft-light" opacity="0.7">
<path d="M23.4549 18.1485C27.1964 15.5029 34.9732 14.7911 33.0792 15.3835C29.2899 16.5686 27.0015 17.9008 24.2176 19.7238C22.9584 20.5484 19.3163 23.7618 17.8517 25.2578C18.1037 24.2657 19.7133 20.794 23.4549 18.1485Z" fill="#F8F9FA"/>
</g>
<circle cx="47.9109" cy="26.0613" r="0.937265" fill="#212529"/>
</svg>
