<svg width="60" height="60" viewBox="0 0 60 60" fill="none" xmlns="http://www.w3.org/2000/svg">
<mask id="path-1-outside-1_694_8717" maskUnits="userSpaceOnUse" x="4.93378" y="9.43164" width="50" height="41" fill="black">
<rect fill="white" x="4.93378" y="9.43164" width="50" height="41"/>
<path fill-rule="evenodd" clip-rule="evenodd" d="M34.764 12.2123C39.1089 13.1176 43.3876 14.8102 46.3605 17.2572C51.5289 21.2651 53.218 26.4555 53.0557 30.6546C53.0583 30.6886 53.0589 30.7232 53.0576 30.7581L52.7188 39.5458C52.6504 41.3223 51.9132 43.0863 50.4605 44.2534C46.8751 47.1337 43.1386 48.5686 38.4988 48.5686C32.9487 48.5686 29.2806 45.8681 26.2342 42.9032C23.6977 40.4345 21.2747 40.2888 18.408 40.1164C17.8469 40.0827 17.2689 40.0479 16.6696 39.9945C13.8011 39.7389 11.0329 38.8727 8.83063 37.1025C7.46782 36.0071 6.98062 34.3065 6.98062 32.7624V26.9767C6.84847 25.8865 7.02146 24.8725 7.18332 24.0607C8.33791 18.27 14.6146 13.5734 22.3424 11.9193C25.8719 11.1638 30.4096 11.3049 34.764 12.2123ZM8.78062 30.5255V32.7624C8.78062 33.982 9.16713 35.0636 9.95834 35.6995C11.8065 37.1851 14.2016 37.9675 16.8294 38.2016C17.3424 38.2473 17.8651 38.2766 18.3956 38.3062L18.3957 38.3062C21.3007 38.4686 24.4387 38.644 27.4896 41.6133C30.4023 44.448 33.6395 46.7686 38.4988 46.7686C42.6969 46.7686 46.0418 45.4943 49.3331 42.8501C50.3152 42.0612 50.8684 40.8206 50.9202 39.4764L51.0198 36.8925C46.0305 44.0871 36.4479 43.9097 30.6349 39.8701C29.7879 39.2815 29.1889 38.7307 28.6709 38.2428L28.5549 38.1334L28.5548 38.1334C28.0853 37.6905 27.7009 37.3278 27.2181 36.9892C26.2092 36.2817 24.6802 35.6228 21.1008 35.07C14.4053 34.036 10.7125 32.4322 8.78062 30.5255ZM51.1823 31.5366C51.0232 32.8682 50.6493 34.023 50.1581 34.8852C46.095 42.0172 37.1679 42.2181 31.6621 38.392C30.9266 37.8808 30.405 37.4034 29.905 36.9325L29.7775 36.8122L29.7775 36.8122C29.3225 36.3823 28.8463 35.9326 28.2516 35.5155C26.9154 34.5785 25.0718 33.8619 21.3755 33.2911C14.294 32.1975 11.1287 30.5155 9.76122 28.9425C9.37947 28.5034 9.12634 28.0588 8.96684 27.6117L51.1823 31.5366ZM51.2607 29.7361L8.74754 25.7835C8.77864 25.3239 8.85822 24.8658 8.94857 24.4127C9.89898 19.646 15.3074 15.2659 22.7191 13.6794C25.9402 12.99 30.2154 13.1031 34.3968 13.9744C38.5824 14.8466 42.5573 16.4541 45.226 18.6548C45.2331 18.6606 45.2403 18.6664 45.2476 18.672C49.595 22.0387 51.1579 26.2495 51.2607 29.7361Z"/>
</mask>
<path fill-rule="evenodd" clip-rule="evenodd" d="M34.764 12.2123C39.1089 13.1176 43.3876 14.8102 46.3605 17.2572C51.5289 21.2651 53.218 26.4555 53.0557 30.6546C53.0583 30.6886 53.0589 30.7232 53.0576 30.7581L52.7188 39.5458C52.6504 41.3223 51.9132 43.0863 50.4605 44.2534C46.8751 47.1337 43.1386 48.5686 38.4988 48.5686C32.9487 48.5686 29.2806 45.8681 26.2342 42.9032C23.6977 40.4345 21.2747 40.2888 18.408 40.1164C17.8469 40.0827 17.2689 40.0479 16.6696 39.9945C13.8011 39.7389 11.0329 38.8727 8.83063 37.1025C7.46782 36.0071 6.98062 34.3065 6.98062 32.7624V26.9767C6.84847 25.8865 7.02146 24.8725 7.18332 24.0607C8.33791 18.27 14.6146 13.5734 22.3424 11.9193C25.8719 11.1638 30.4096 11.3049 34.764 12.2123ZM8.78062 30.5255V32.7624C8.78062 33.982 9.16713 35.0636 9.95834 35.6995C11.8065 37.1851 14.2016 37.9675 16.8294 38.2016C17.3424 38.2473 17.8651 38.2766 18.3956 38.3062L18.3957 38.3062C21.3007 38.4686 24.4387 38.644 27.4896 41.6133C30.4023 44.448 33.6395 46.7686 38.4988 46.7686C42.6969 46.7686 46.0418 45.4943 49.3331 42.8501C50.3152 42.0612 50.8684 40.8206 50.9202 39.4764L51.0198 36.8925C46.0305 44.0871 36.4479 43.9097 30.6349 39.8701C29.7879 39.2815 29.1889 38.7307 28.6709 38.2428L28.5549 38.1334L28.5548 38.1334C28.0853 37.6905 27.7009 37.3278 27.2181 36.9892C26.2092 36.2817 24.6802 35.6228 21.1008 35.07C14.4053 34.036 10.7125 32.4322 8.78062 30.5255ZM51.1823 31.5366C51.0232 32.8682 50.6493 34.023 50.1581 34.8852C46.095 42.0172 37.1679 42.2181 31.6621 38.392C30.9266 37.8808 30.405 37.4034 29.905 36.9325L29.7775 36.8122L29.7775 36.8122C29.3225 36.3823 28.8463 35.9326 28.2516 35.5155C26.9154 34.5785 25.0718 33.8619 21.3755 33.2911C14.294 32.1975 11.1287 30.5155 9.76122 28.9425C9.37947 28.5034 9.12634 28.0588 8.96684 27.6117L51.1823 31.5366ZM51.2607 29.7361L8.74754 25.7835C8.77864 25.3239 8.85822 24.8658 8.94857 24.4127C9.89898 19.646 15.3074 15.2659 22.7191 13.6794C25.9402 12.99 30.2154 13.1031 34.3968 13.9744C38.5824 14.8466 42.5573 16.4541 45.226 18.6548C45.2331 18.6606 45.2403 18.6664 45.2476 18.672C49.595 22.0387 51.1579 26.2495 51.2607 29.7361Z" fill="#F8F9FA"/>
<path d="M46.3605 17.2572L45.4072 18.4154C45.4185 18.4246 45.4298 18.4337 45.4413 18.4426L46.3605 17.2572ZM34.764 12.2123L35.07 10.7438V10.7438L34.764 12.2123ZM53.0557 30.6546L51.5568 30.5967C51.5546 30.6537 51.5556 30.7108 51.56 30.7677L53.0557 30.6546ZM53.0576 30.7581L51.5587 30.7002V30.7003L53.0576 30.7581ZM52.7188 39.5458L54.2177 39.6035V39.6035L52.7188 39.5458ZM50.4605 44.2534L49.521 43.084L50.4605 44.2534ZM26.2342 42.9032L25.188 43.9781L26.2342 42.9032ZM18.408 40.1164L18.4981 38.6191H18.4981L18.408 40.1164ZM16.6696 39.9945L16.8028 38.5004H16.8028L16.6696 39.9945ZM8.83063 37.1025L9.77039 35.9334H9.77039L8.83063 37.1025ZM6.98062 26.9767H8.48062C8.48062 26.9164 8.47698 26.8561 8.46972 26.7962L6.98062 26.9767ZM7.18332 24.0607L8.65436 24.354L7.18332 24.0607ZM22.3424 11.9193L22.6563 13.3861H22.6563L22.3424 11.9193ZM8.78062 30.5255L9.8343 29.4579C9.40377 29.033 8.76015 28.9082 8.20205 29.1415C7.64396 29.3749 7.28062 29.9206 7.28062 30.5255H8.78062ZM9.95834 35.6995L9.01858 36.8687H9.01858L9.95834 35.6995ZM16.8294 38.2016L16.9625 36.7075L16.8294 38.2016ZM18.3956 38.3062L18.5152 36.811C18.5033 36.81 18.4913 36.8092 18.4793 36.8085L18.3956 38.3062ZM18.3957 38.3062L18.2761 39.8014C18.288 39.8024 18.3 39.8032 18.312 39.8039L18.3957 38.3062ZM27.4896 41.6133L28.5358 40.5383L27.4896 41.6133ZM49.3331 42.8501L50.2726 44.0195L49.3331 42.8501ZM50.9202 39.4764L52.4191 39.5342L50.9202 39.4764ZM51.0198 36.8925L52.5187 36.9503C52.5443 36.2842 52.1273 35.681 51.4951 35.4698C50.8628 35.2586 50.167 35.4899 49.7872 36.0377L51.0198 36.8925ZM30.6349 39.8701L31.4909 38.6383H31.4909L30.6349 39.8701ZM28.6709 38.2428L27.6418 39.3342L27.6424 39.3347L28.6709 38.2428ZM28.5549 38.1334L27.4942 39.1941C27.5046 39.2045 27.5151 39.2147 27.5258 39.2248L28.5549 38.1334ZM28.5548 38.1334L29.6155 37.0727C29.6052 37.0625 29.5948 37.0523 29.5842 37.0423L28.5548 38.1334ZM27.2181 36.9892L26.3568 38.2173L26.3569 38.2173L27.2181 36.9892ZM21.1008 35.07L21.3297 33.5876L21.1008 35.07ZM50.1581 34.8852L51.4614 35.6277L50.1581 34.8852ZM51.1823 31.5366L52.6717 31.7145C52.7197 31.3127 52.6033 30.9086 52.349 30.5938C52.0947 30.2791 51.724 30.0805 51.3211 30.043L51.1823 31.5366ZM31.6621 38.392L30.8061 39.6237H30.8061L31.6621 38.392ZM29.905 36.9325L28.8755 38.0234L28.8765 38.0244L29.905 36.9325ZM29.7775 36.8122L28.7169 37.8728C28.7271 37.8831 28.7375 37.8932 28.748 37.9031L29.7775 36.8122ZM29.7775 36.8122L30.8382 35.7515C30.8281 35.7414 30.8179 35.7315 30.8075 35.7218L29.7775 36.8122ZM28.2516 35.5155L29.1128 34.2874V34.2874L28.2516 35.5155ZM21.3755 33.2911L21.1466 34.7735L21.3755 33.2911ZM9.76122 28.9425L10.8933 27.9584H10.8933L9.76122 28.9425ZM8.96684 27.6117L9.10571 26.1181C8.59558 26.0707 8.09653 26.2869 7.78225 26.6915C7.46796 27.0961 7.38191 27.6331 7.55404 28.1156L8.96684 27.6117ZM8.74754 25.7835L7.25096 25.6822C7.19603 26.4941 7.79844 27.2017 8.60868 27.2771L8.74754 25.7835ZM51.2607 29.7361L51.1218 31.2296C51.5497 31.2694 51.974 31.1238 52.2873 30.8297C52.6006 30.5357 52.7727 30.1214 52.76 29.6919L51.2607 29.7361ZM8.94857 24.4127L7.47753 24.1194L8.94857 24.4127ZM22.7191 13.6794L23.0331 15.1462L22.7191 13.6794ZM34.3968 13.9744L34.7028 12.506L34.3968 13.9744ZM45.226 18.6548L44.2717 19.8121L44.2718 19.8121L45.226 18.6548ZM45.2476 18.672L46.166 17.486L46.166 17.486L45.2476 18.672ZM47.3138 16.0991C44.0876 13.4435 39.5519 11.6777 35.07 10.7438L34.458 13.6807C38.6659 14.5576 42.6877 16.1769 45.4072 18.4154L47.3138 16.0991ZM54.5546 30.7125C54.7345 26.0582 52.8526 20.3935 47.2797 16.0719L45.4413 18.4426C50.2052 22.1368 51.7015 26.8527 51.5568 30.5967L54.5546 30.7125ZM51.56 30.7677C51.5582 30.7451 51.5578 30.7226 51.5587 30.7002L54.5565 30.8159C54.56 30.7238 54.5583 30.6322 54.5514 30.5415L51.56 30.7677ZM51.5587 30.7003L51.22 39.488L54.2177 39.6035L54.5565 30.8158L51.5587 30.7003ZM51.22 39.488C51.1653 40.905 50.581 42.2325 49.521 43.084L51.3999 45.4228C53.2454 43.9402 54.1354 41.7396 54.2177 39.6035L51.22 39.488ZM49.521 43.084C46.1806 45.7676 42.7705 47.0686 38.4988 47.0686V50.0686C43.5068 50.0686 47.5696 48.4999 51.3999 45.4228L49.521 43.084ZM38.4988 47.0686C33.5246 47.0686 30.2156 44.6849 27.2804 41.8282L25.188 43.9781C28.3456 47.0512 32.3729 50.0686 38.4988 50.0686V47.0686ZM27.2804 41.8282C24.3155 38.9427 21.3784 38.7923 18.4981 38.6191L18.318 41.6137C21.1709 41.7853 23.0798 41.9263 25.188 43.9781L27.2804 41.8282ZM18.4981 38.6191C17.9342 38.5852 17.3772 38.5516 16.8028 38.5004L16.5365 41.4886C17.1606 41.5442 17.7597 41.5801 18.318 41.6137L18.4981 38.6191ZM16.8028 38.5004C14.1347 38.2627 11.6775 37.4663 9.77039 35.9334L7.89088 38.2716C10.3884 40.2791 13.4674 41.2151 16.5365 41.4886L16.8028 38.5004ZM9.77039 35.9334C8.88508 35.2217 8.48062 34.0381 8.48062 32.7624H5.48062C5.48062 34.5748 6.05057 36.7924 7.89088 38.2716L9.77039 35.9334ZM8.48062 32.7624V26.9767H5.48062V32.7624H8.48062ZM5.71227 23.7674C5.54601 24.6013 5.32878 25.8146 5.49152 27.1572L8.46972 26.7962C8.36815 25.9583 8.4969 25.1437 8.65436 24.354L5.71227 23.7674ZM22.0284 10.4525C14.0394 12.1625 7.03729 17.122 5.71227 23.7674L8.65436 24.354C9.63853 19.4181 15.1899 14.9842 22.6563 13.3861L22.0284 10.4525ZM35.07 10.7438C30.5716 9.80646 25.815 9.64202 22.0284 10.4525L22.6563 13.3861C25.9288 12.6856 30.2477 12.8034 34.458 13.6807L35.07 10.7438ZM7.28062 30.5255V32.7624H10.2806V30.5255H7.28062ZM7.28062 32.7624C7.28062 34.2555 7.75279 35.8512 9.01858 36.8687L10.8981 34.5304C10.5815 34.2759 10.2806 33.7084 10.2806 32.7624H7.28062ZM9.01858 36.8687C11.1618 38.5914 13.8677 39.4436 16.6962 39.6957L16.9625 36.7075C14.5356 36.4913 12.4513 35.7789 10.8981 34.5304L9.01858 36.8687ZM16.6962 39.6957C17.2382 39.744 17.7859 39.7745 18.3119 39.8039L18.4793 36.8085C17.9443 36.7786 17.4466 36.7507 16.9625 36.7075L16.6962 39.6957ZM18.276 39.8014L18.2761 39.8014L18.5153 36.811L18.5152 36.811L18.276 39.8014ZM18.312 39.8039C21.1988 39.9652 23.822 40.1369 26.4435 42.6882L28.5358 40.5383C25.0554 37.151 21.4027 36.9719 18.4794 36.8085L18.312 39.8039ZM26.4435 42.6882C29.4678 45.6316 33.0641 48.2686 38.4988 48.2686V45.2686C34.215 45.2686 31.3369 43.2644 28.5358 40.5383L26.4435 42.6882ZM38.4988 48.2686C43.0649 48.2686 46.7362 46.8605 50.2726 44.0195L48.3937 41.6807C45.3474 44.128 42.3289 45.2686 38.4988 45.2686V48.2686ZM50.2726 44.0195C51.6461 42.9161 52.3533 41.2398 52.4191 39.5342L49.4213 39.4186C49.3834 40.4015 48.9842 41.2064 48.3937 41.6807L50.2726 44.0195ZM52.4191 39.5342L52.5187 36.9503L49.5209 36.8347L49.4213 39.4186L52.4191 39.5342ZM29.7789 41.1019C36.066 45.471 46.659 45.813 52.2524 37.7473L49.7872 36.0377C45.402 42.3612 36.8298 42.3485 31.4909 38.6383L29.7789 41.1019ZM27.6424 39.3347C28.1757 39.8369 28.839 40.4487 29.7789 41.1019L31.4909 38.6383C30.7367 38.1142 30.2022 37.6245 29.6993 37.1508L27.6424 39.3347ZM27.5258 39.2248L27.6418 39.3342L29.6999 37.1514L29.5839 37.0421L27.5258 39.2248ZM27.4942 39.1941L27.4942 39.1941L29.6155 37.0728L29.6155 37.0727L27.4942 39.1941ZM26.3569 38.2173C26.7367 38.4837 27.0449 38.7711 27.5255 39.2245L29.5842 37.0423C29.1258 36.6098 28.6651 36.1719 28.0793 35.7611L26.3569 38.2173ZM20.8719 36.5524C24.354 37.0902 25.6208 37.7011 26.3568 38.2173L28.0793 35.7611C26.7977 34.8623 25.0064 34.1554 21.3297 33.5876L20.8719 36.5524ZM7.72694 31.5931C10.009 33.8454 14.1026 35.5071 20.8719 36.5524L21.3297 33.5876C14.708 32.565 11.4161 31.019 9.8343 29.4579L7.72694 31.5931ZM51.4614 35.6277C52.0684 34.5622 52.4933 33.2082 52.6717 31.7145L49.6929 31.3587C49.5532 32.5282 49.2301 33.4838 48.8547 34.1427L51.4614 35.6277ZM30.8061 39.6237C36.812 43.7974 46.8378 43.7438 51.4614 35.6277L48.8547 34.1427C45.3523 40.2907 37.5239 40.6388 32.5181 37.1602L30.8061 39.6237ZM28.8765 38.0244C29.3915 38.5094 29.9776 39.048 30.8061 39.6237L32.5181 37.1602C31.8756 36.7137 31.4185 36.2974 30.9334 35.8405L28.8765 38.0244ZM28.748 37.9031L28.8755 38.0234L30.9345 35.8415L30.807 35.7213L28.748 37.9031ZM28.7168 37.8728L28.7169 37.8728L30.8382 35.7515L30.8382 35.7515L28.7168 37.8728ZM27.3903 36.7436C27.8836 37.0895 28.2862 37.4668 28.7475 37.9026L30.8075 35.7218C30.3588 35.2979 29.8091 34.7756 29.1128 34.2874L27.3903 36.7436ZM21.1466 34.7735C24.7454 35.3293 26.3269 35.9978 27.3903 36.7436L29.1128 34.2874C27.504 33.1591 25.3982 32.3945 21.6044 31.8087L21.1466 34.7735ZM8.62918 29.9266C10.3661 31.9247 13.9991 33.6698 21.1466 34.7735L21.6044 31.8087C14.589 30.7253 11.8912 29.1064 10.8933 27.9584L8.62918 29.9266ZM7.55404 28.1156C7.77901 28.7463 8.12998 29.3524 8.62918 29.9266L10.8933 27.9584C10.629 27.6544 10.4737 27.3712 10.3796 27.1077L7.55404 28.1156ZM51.3211 30.043L9.10571 26.1181L8.82798 29.1052L51.0434 33.0301L51.3211 30.043ZM8.60868 27.2771L51.1218 31.2296L51.3995 28.2425L8.8864 24.29L8.60868 27.2771ZM7.47753 24.1194C7.38361 24.5904 7.28872 25.1242 7.25096 25.6822L10.2441 25.8848C10.2686 25.5235 10.3328 25.1413 10.4196 24.706L7.47753 24.1194ZM22.4052 12.2126C14.7278 13.856 8.59778 18.5009 7.47753 24.1194L10.4196 24.706C11.2002 20.7912 15.8869 16.6758 23.0331 15.1462L22.4052 12.2126ZM34.7028 12.506C30.3773 11.6046 25.8833 11.4682 22.4052 12.2126L23.0331 15.1462C25.9971 14.5118 30.0535 14.6016 34.0908 15.4429L34.7028 12.506ZM46.1803 17.4975C43.2578 15.0876 39.0255 13.4067 34.7028 12.506L34.0908 15.4429C38.1393 16.2865 41.8567 17.8206 44.2717 19.8121L46.1803 17.4975ZM46.166 17.486C46.1709 17.4898 46.1757 17.4936 46.1803 17.4975L44.2718 19.8121C44.2906 19.8276 44.3097 19.8429 44.3292 19.858L46.166 17.486ZM52.76 29.6919C52.6448 25.7798 50.8857 21.141 46.166 17.486L44.3292 19.8579C48.3043 22.9363 49.6711 26.7191 49.7613 29.7803L52.76 29.6919Z" fill="#F8F9FA" mask="url(#path-1-outside-1_694_8717)"/>
<path d="M7.74695 32.763V26.6074L52.0246 30.724L51.6858 39.5117C51.6257 41.0721 50.9805 42.5744 49.7631 43.5524C46.3248 46.3146 42.7841 47.6693 38.3652 47.6693C33.1605 47.6693 29.7078 45.1587 26.7283 42.2589C23.4077 39.0272 20.1075 39.4099 16.6158 39.0987C13.8677 38.8538 11.2861 38.0296 9.26081 36.4016C8.1838 35.5359 7.74695 34.1448 7.74695 32.763Z" fill="#E14D4D" stroke="#212529" stroke-width="1.8" stroke-linecap="round" stroke-linejoin="round"/>
<path d="M7.93225 24.2371C8.98475 18.9584 14.8273 14.42 22.3971 12.7997C29.1477 11.3548 40.0228 13.3083 45.6649 17.9608C52.9709 23.6187 52.9014 31.6536 50.8064 35.3311C46.4053 43.0566 36.8173 43.1637 31.0148 39.1314C27.8498 36.932 28.3801 35.3045 21.1045 34.181C6.86199 31.9815 7.32125 27.3015 7.93225 24.2371Z" fill="#FF6B6B" stroke="#212529" stroke-width="1.8" stroke-linejoin="round"/>
<path d="M11.5403 24.4262C12.4001 20.0025 17.7678 16.5474 23.9542 15.7534C30.5851 14.9024 37.3786 16.0845 43.3507 20.5922C48.9775 24.8391 49.4699 30.9849 47.5378 34.1812C44.9601 38.4455 37.9399 39.337 33.2002 35.9577C30.6148 34.1145 29.556 32.3166 23.6129 31.375C11.979 29.5318 11.0412 26.9943 11.5403 24.4262Z" fill="#FFC9C9" stroke="#212529" stroke-width="1.2" stroke-linejoin="round"/>
<path d="M28.1614 23.8665C24.7321 23.0794 23.0896 18.6667 21.2434 21.2763C18.2896 24.287 20.1361 28.0158 23.6628 28.8679C27.6391 29.6489 33.686 29.239 34.3716 24.7462C34.6451 22.9544 33.9966 22.487 33.0047 22.5586C31.9941 23.0338 29.5974 24.196 28.1614 23.8665Z" fill="#FFE3E3"/>
<path d="M20.1589 19.3992C19.6159 19.3992 15.654 21.0259 14.5278 23.487C12.5673 27.2411 18.5152 28.5839 19.1578 27.9501C19.989 27.1303 17.6145 26.1566 18.2819 23.487C18.6021 22.2059 20.8376 19.3992 20.1589 19.3992Z" fill="#FFE3E3"/>
<path d="M32.9106 18.8492C29.6273 17.3736 24.6178 18.2656 23.6628 18.5264C22.7077 18.7872 22.5923 19.2359 22.8996 19.5068C23.2068 19.7776 23.621 19.7712 24.5602 20.2982C26.0549 21.1371 26.5311 22.2847 28.4507 22.6384C30.3702 22.992 32.9106 21.2763 32.9106 21.2763C34.0583 20.8908 34.1739 19.417 32.9106 18.8492Z" fill="#FFE3E3"/>
<path d="M35.3947 21.6256C35.173 20.1664 34.899 19.5233 34.6848 19.1485C34.0424 18.1848 38.5272 19.98 40.99 21.372C43.4527 22.764 45.5054 25.4527 46.0757 26.9183C46.4957 27.9977 46.6895 30.1191 44.007 28.4721C41.3039 26.8124 36.395 25.6679 35.9132 25.3467C35.4314 25.0255 35.6164 23.0848 35.3947 21.6256Z" fill="#FFE3E3"/>
<g style="mix-blend-mode:multiply">
<path d="M49.0115 38.2166L50.8746 36.5479C50.9965 38.3146 51.0818 42.0066 50.4482 42.6402C49.8146 43.2738 47.0974 44.5694 45.818 45.138C46.838 44.4005 47.8704 43.5235 48.3646 42.6402C49.3059 40.9579 49.1492 38.8913 49.0115 38.2166Z" fill="#DEE2E6"/>
</g>
<path d="M46.1175 31.286C45.5755 29.9138 38.9614 27.3406 35.6997 26.3838C35.0027 26.3837 33.6879 28.6355 32.3331 29.3006C30.9782 29.9657 30.4566 30.7148 31.2381 31.5629C32.0953 32.4931 33.5155 33.8052 35.3184 34.6209C37.7281 35.7113 39.8962 36.1076 41.9462 35.5628C43.7095 35.0942 46.7949 33.0012 46.1175 31.286Z" fill="#FFE3E3"/>
</svg>
