<svg width="60" height="58" viewBox="0 0 60 58" fill="none" xmlns="http://www.w3.org/2000/svg">
<g filter="url(#filter0_d_694_8277)">
<mask id="path-1-outside-1_694_8277" maskUnits="userSpaceOnUse" x="8.05145" y="8.51758" width="44" height="45" fill="black">
<rect fill="white" x="8.05145" y="8.51758" width="44" height="45"/>
<path fill-rule="evenodd" clip-rule="evenodd" d="M24.5276 13.3869C26.1537 12.6531 27.9721 12.2458 30 12.2458C31.601 12.2458 33.0706 12.4684 34.4198 12.888C34.5638 12.9328 34.7171 12.9392 34.8643 12.9064C34.9995 12.8763 35.1407 12.8602 35.2868 12.8602C35.8374 12.8602 36.333 13.0895 36.6859 13.4601C36.8316 13.6132 37.0283 13.7075 37.2389 13.7253C38.4279 13.8259 39.4344 14.5802 39.8931 15.6306C40.0117 15.9023 40.2613 16.0942 40.5544 16.139C42.0861 16.3732 43.2596 17.6978 43.2596 19.295C43.2596 19.5479 43.2304 19.7928 43.1755 20.0271C43.126 20.2385 43.1578 20.4608 43.2648 20.6498C44.5504 22.9215 45.5958 25.5968 46.4193 28.6008H14.1616C14.4754 27.3229 14.846 26.0817 15.2744 24.892C15.36 24.6544 15.3374 24.3914 15.2125 24.1719C15.053 23.8915 14.9616 23.5672 14.9616 23.2189C14.9616 22.2976 15.6075 21.525 16.472 21.3333C16.7164 21.279 16.9253 21.1215 17.0446 20.9014C17.2388 20.543 17.4399 20.193 17.6477 19.8519C17.749 19.6856 17.7912 19.4899 17.7674 19.2966C17.7515 19.1674 17.7432 19.0354 17.7432 18.9012C17.7432 17.2577 18.9857 15.9032 20.5821 15.7276C20.9771 15.6842 21.2915 15.3769 21.3441 14.983C21.4702 14.0392 22.2799 13.3107 23.2585 13.3107C23.4811 13.3107 23.6931 13.348 23.8898 13.416C24.0983 13.4881 24.3265 13.4777 24.5276 13.3869ZM30 10.5176C27.8527 10.5176 25.8896 10.9276 24.1114 11.6826C23.8371 11.6171 23.5514 11.5825 23.2585 11.5825C21.6291 11.5825 20.2494 12.6466 19.7749 14.118C17.6171 14.6402 16.015 16.5831 16.015 18.9012C16.015 19.001 16.018 19.1002 16.0239 19.1987C15.9145 19.383 15.807 19.5694 15.7015 19.7578C14.2655 20.2522 13.2334 21.6142 13.2334 23.2189C13.2334 23.727 13.3373 24.2123 13.5255 24.6535C13.082 25.9265 12.7023 27.2478 12.3842 28.6009H10.9156C10.4383 28.6009 10.0515 28.9877 10.0515 29.465C10.0515 34.4134 10.4865 39.1807 13.3058 42.6829C15.0561 44.8573 17.6506 46.4608 21.4125 47.3758V48.5549C21.4125 49.8019 22.2589 50.9449 23.5667 51.1629C24.9183 51.3883 27.1442 51.6535 30.1335 51.6535C33.0767 51.6535 35.1948 51.3964 36.4826 51.1721C37.7735 50.9472 38.5875 49.8143 38.5875 48.595V47.3758C42.3494 46.4608 44.9439 44.8573 46.6942 42.6829C49.5135 39.1807 49.9485 34.4134 49.9485 29.465C49.9485 28.9877 49.5616 28.6009 49.0844 28.6009H48.209C47.3718 25.4317 46.2895 22.5576 44.9256 20.0794C44.9666 19.8235 44.9879 19.5615 44.9879 19.295C44.9879 16.9922 43.4069 15.06 41.271 14.5225C40.5453 13.2145 39.2404 12.2709 37.6998 12.0401C37.0562 11.4755 36.211 11.132 35.2868 11.132C35.0964 11.132 34.9089 11.1466 34.7256 11.1749C33.2581 10.7414 31.6836 10.5176 30 10.5176ZM30 48.2558C27.4045 48.2558 25.1303 48.0771 23.1407 47.733V48.5549C23.1407 49.0372 23.453 49.3919 23.8509 49.4582C25.1159 49.6692 27.2465 49.9253 30.1335 49.9253C32.9755 49.9253 34.9943 49.6771 36.186 49.4695C36.5612 49.4041 36.8593 49.067 36.8593 48.595V47.733C34.8697 48.0771 32.5954 48.2558 30 48.2558ZM45.348 41.5992C43.8693 43.4361 41.5822 44.8999 37.997 45.7407C37.911 45.7121 37.819 45.6965 37.7234 45.6965H22.2766C22.181 45.6965 22.089 45.7121 22.003 45.7407C18.4177 44.8999 16.1307 43.4361 14.652 41.5992C12.3894 38.7885 11.8414 34.9056 11.7848 30.3291H48.2152C48.1586 34.9056 47.6106 38.7885 45.348 41.5992Z"/>
</mask>
<path fill-rule="evenodd" clip-rule="evenodd" d="M24.5276 13.3869C26.1537 12.6531 27.9721 12.2458 30 12.2458C31.601 12.2458 33.0706 12.4684 34.4198 12.888C34.5638 12.9328 34.7171 12.9392 34.8643 12.9064C34.9995 12.8763 35.1407 12.8602 35.2868 12.8602C35.8374 12.8602 36.333 13.0895 36.6859 13.4601C36.8316 13.6132 37.0283 13.7075 37.2389 13.7253C38.4279 13.8259 39.4344 14.5802 39.8931 15.6306C40.0117 15.9023 40.2613 16.0942 40.5544 16.139C42.0861 16.3732 43.2596 17.6978 43.2596 19.295C43.2596 19.5479 43.2304 19.7928 43.1755 20.0271C43.126 20.2385 43.1578 20.4608 43.2648 20.6498C44.5504 22.9215 45.5958 25.5968 46.4193 28.6008H14.1616C14.4754 27.3229 14.846 26.0817 15.2744 24.892C15.36 24.6544 15.3374 24.3914 15.2125 24.1719C15.053 23.8915 14.9616 23.5672 14.9616 23.2189C14.9616 22.2976 15.6075 21.525 16.472 21.3333C16.7164 21.279 16.9253 21.1215 17.0446 20.9014C17.2388 20.543 17.4399 20.193 17.6477 19.8519C17.749 19.6856 17.7912 19.4899 17.7674 19.2966C17.7515 19.1674 17.7432 19.0354 17.7432 18.9012C17.7432 17.2577 18.9857 15.9032 20.5821 15.7276C20.9771 15.6842 21.2915 15.3769 21.3441 14.983C21.4702 14.0392 22.2799 13.3107 23.2585 13.3107C23.4811 13.3107 23.6931 13.348 23.8898 13.416C24.0983 13.4881 24.3265 13.4777 24.5276 13.3869ZM30 10.5176C27.8527 10.5176 25.8896 10.9276 24.1114 11.6826C23.8371 11.6171 23.5514 11.5825 23.2585 11.5825C21.6291 11.5825 20.2494 12.6466 19.7749 14.118C17.6171 14.6402 16.015 16.5831 16.015 18.9012C16.015 19.001 16.018 19.1002 16.0239 19.1987C15.9145 19.383 15.807 19.5694 15.7015 19.7578C14.2655 20.2522 13.2334 21.6142 13.2334 23.2189C13.2334 23.727 13.3373 24.2123 13.5255 24.6535C13.082 25.9265 12.7023 27.2478 12.3842 28.6009H10.9156C10.4383 28.6009 10.0515 28.9877 10.0515 29.465C10.0515 34.4134 10.4865 39.1807 13.3058 42.6829C15.0561 44.8573 17.6506 46.4608 21.4125 47.3758V48.5549C21.4125 49.8019 22.2589 50.9449 23.5667 51.1629C24.9183 51.3883 27.1442 51.6535 30.1335 51.6535C33.0767 51.6535 35.1948 51.3964 36.4826 51.1721C37.7735 50.9472 38.5875 49.8143 38.5875 48.595V47.3758C42.3494 46.4608 44.9439 44.8573 46.6942 42.6829C49.5135 39.1807 49.9485 34.4134 49.9485 29.465C49.9485 28.9877 49.5616 28.6009 49.0844 28.6009H48.209C47.3718 25.4317 46.2895 22.5576 44.9256 20.0794C44.9666 19.8235 44.9879 19.5615 44.9879 19.295C44.9879 16.9922 43.4069 15.06 41.271 14.5225C40.5453 13.2145 39.2404 12.2709 37.6998 12.0401C37.0562 11.4755 36.211 11.132 35.2868 11.132C35.0964 11.132 34.9089 11.1466 34.7256 11.1749C33.2581 10.7414 31.6836 10.5176 30 10.5176ZM30 48.2558C27.4045 48.2558 25.1303 48.0771 23.1407 47.733V48.5549C23.1407 49.0372 23.453 49.3919 23.8509 49.4582C25.1159 49.6692 27.2465 49.9253 30.1335 49.9253C32.9755 49.9253 34.9943 49.6771 36.186 49.4695C36.5612 49.4041 36.8593 49.067 36.8593 48.595V47.733C34.8697 48.0771 32.5954 48.2558 30 48.2558ZM45.348 41.5992C43.8693 43.4361 41.5822 44.8999 37.997 45.7407C37.911 45.7121 37.819 45.6965 37.7234 45.6965H22.2766C22.181 45.6965 22.089 45.7121 22.003 45.7407C18.4177 44.8999 16.1307 43.4361 14.652 41.5992C12.3894 38.7885 11.8414 34.9056 11.7848 30.3291H48.2152C48.1586 34.9056 47.6106 38.7885 45.348 41.5992Z" fill="#F8F9FA"/>
<path d="M30 12.2458V10.7458V12.2458ZM24.5276 13.3869L25.1446 14.7542H25.1446L24.5276 13.3869ZM34.4198 12.8881L33.9743 14.3204L33.9743 14.3204L34.4198 12.8881ZM34.8643 12.9064L35.1903 14.3705L35.1903 14.3705L34.8643 12.9064ZM36.6859 13.4602L35.5996 14.4945L35.5996 14.4945L36.6859 13.4602ZM37.2389 13.7253L37.3653 12.2307L37.3653 12.2307L37.2389 13.7253ZM39.8931 15.6306L41.2677 15.0304L41.2677 15.0304L39.8931 15.6306ZM40.5544 16.139L40.7811 14.6562L40.5544 16.139ZM43.1755 20.0271L44.6359 20.3694L44.6359 20.3693L43.1755 20.0271ZM43.2648 20.6499L41.9594 21.3886V21.3886L43.2648 20.6499ZM46.4193 28.6009V30.1009C46.8871 30.1009 47.3282 29.8826 47.6119 29.5106C47.8957 29.1386 47.9896 28.6555 47.8659 28.2043L46.4193 28.6009ZM14.1616 28.6009L12.7049 28.2431C12.595 28.6906 12.6969 29.1638 12.9812 29.5264C13.2656 29.8891 13.7008 30.1009 14.1616 30.1009V28.6009ZM15.2744 24.892L13.8632 24.3838L15.2744 24.892ZM15.2125 24.172L16.5163 23.4303L16.5163 23.4303L15.2125 24.172ZM16.472 21.3333L16.1472 19.8689H16.1472L16.472 21.3333ZM17.0446 20.9014L18.3634 21.6161L18.3634 21.6161L17.0446 20.9014ZM17.6477 19.8519L16.3667 19.0714L16.3667 19.0714L17.6477 19.8519ZM17.7674 19.2967L16.2786 19.48V19.48L17.7674 19.2967ZM20.5821 15.7276L20.7461 17.2187L20.5821 15.7276ZM21.3441 14.9831L22.8309 15.1816L22.8309 15.1816L21.3441 14.9831ZM23.8898 13.416L24.3799 11.9983L24.3799 11.9983L23.8898 13.416ZM24.1114 11.6826L23.7628 13.1416C24.0748 13.2161 24.4024 13.1887 24.6977 13.0633L24.1114 11.6826ZM30 10.5176V9.01758V10.5176ZM19.7749 14.1181L20.1277 15.576C20.6352 15.4532 21.0422 15.0754 21.2025 14.5785L19.7749 14.1181ZM16.0239 19.1987L17.3138 19.9643C17.4668 19.7064 17.5391 19.4086 17.5212 19.1092L16.0239 19.1987ZM15.7015 19.7578L16.1898 21.1761C16.5382 21.0562 16.8303 20.8122 17.0103 20.4907L15.7015 19.7578ZM13.5255 24.6536L14.942 25.1471C15.0648 24.7944 15.0518 24.4087 14.9053 24.0652L13.5255 24.6536ZM12.3842 28.6009V30.1009C13.0804 30.1009 13.6851 29.6219 13.8444 28.9442L12.3842 28.6009ZM13.3058 42.683L12.1373 43.6236H12.1373L13.3058 42.683ZM21.4125 47.3758H22.9125C22.9125 46.684 22.4392 46.0819 21.767 45.9183L21.4125 47.3758ZM23.5667 51.163L23.8134 49.6834H23.8134L23.5667 51.163ZM36.4826 51.1721L36.74 52.6498H36.74L36.4826 51.1721ZM38.5875 47.3758L38.233 45.9183C37.5607 46.0819 37.0875 46.684 37.0875 47.3758H38.5875ZM46.6942 42.683L47.8627 43.6236V43.6236L46.6942 42.683ZM48.209 28.6009L46.7587 28.984C46.9326 29.6423 47.5281 30.1009 48.209 30.1009V28.6009ZM44.9256 20.0794L43.4445 19.8418C43.3916 20.1718 43.4503 20.5099 43.6114 20.8027L44.9256 20.0794ZM41.271 14.5225L39.9593 15.2502C40.1605 15.6128 40.5028 15.876 40.9049 15.9772L41.271 14.5225ZM37.6998 12.0402L36.7105 13.1677C36.9268 13.3575 37.193 13.481 37.4776 13.5236L37.6998 12.0402ZM34.7256 11.1749L34.3006 12.6135C34.5126 12.6761 34.7357 12.6911 34.9542 12.6574L34.7256 11.1749ZM23.1407 47.7331L23.3963 46.255C22.9602 46.1796 22.5131 46.3006 22.1746 46.5856C21.8361 46.8706 21.6407 47.2905 21.6407 47.7331H23.1407ZM23.8509 49.4583L23.6042 50.9378H23.6042L23.8509 49.4583ZM36.186 49.4695L35.9286 47.9918H35.9286L36.186 49.4695ZM36.8593 47.7331H38.3593C38.3593 47.2905 38.1639 46.8706 37.8254 46.5856C37.4868 46.3006 37.0397 46.1796 36.6037 46.255L36.8593 47.7331ZM37.997 45.7408L37.5224 47.1637C37.7861 47.2516 38.0689 47.2646 38.3395 47.2011L37.997 45.7408ZM45.348 41.5993L46.5164 42.5399L45.348 41.5993ZM22.003 45.7408L21.6605 47.2011C21.931 47.2646 22.2139 47.2516 22.4775 47.1637L22.003 45.7408ZM14.652 41.5993L13.4835 42.5399H13.4835L14.652 41.5993ZM11.7848 30.3291V28.8291C11.3838 28.8291 10.9994 28.9897 10.7176 29.275C10.4358 29.5604 10.28 29.9466 10.2849 30.3477L11.7848 30.3291ZM48.2152 30.3291L49.715 30.3477C49.72 29.9466 49.5642 29.5604 49.2823 29.275C49.0005 28.9897 48.6162 28.8291 48.2152 28.8291V30.3291ZM30 10.7458C27.7648 10.7458 25.7355 11.1961 23.9106 12.0197L25.1446 14.7542C26.5718 14.1101 28.1793 13.7458 30 13.7458V10.7458ZM34.8653 11.4558C33.3625 10.9883 31.7418 10.7458 30 10.7458V13.7458C31.4601 13.7458 32.7788 13.9485 33.9743 14.3204L34.8653 11.4558ZM34.5383 11.4423C34.6466 11.4181 34.7593 11.4228 34.8653 11.4558L33.9743 14.3204C34.3683 14.4429 34.7876 14.4602 35.1903 14.3705L34.5383 11.4423ZM35.2868 11.3602C35.0304 11.3602 34.7798 11.3885 34.5382 11.4423L35.1903 14.3705C35.2192 14.3641 35.2511 14.3602 35.2868 14.3602V11.3602ZM37.7723 12.4258C37.1477 11.7698 36.2642 11.3602 35.2868 11.3602V14.3602C35.4105 14.3602 35.5183 14.4092 35.5996 14.4945L37.7723 12.4258ZM37.3653 12.2307C37.5203 12.2438 37.665 12.3132 37.7723 12.4258L35.5996 14.4945C35.9982 14.9132 36.5364 15.1713 37.1124 15.22L37.3653 12.2307ZM41.2677 15.0304C40.5949 13.4893 39.1182 12.379 37.3653 12.2307L37.1124 15.22C37.7377 15.2729 38.274 15.6711 38.5184 16.2308L41.2677 15.0304ZM40.7811 14.6562C40.9967 14.6892 41.1804 14.8304 41.2677 15.0304L38.5184 16.2308C38.8429 16.9741 39.5259 17.4992 40.3277 17.6218L40.7811 14.6562ZM44.7596 19.295C44.7596 16.9465 43.0347 15.0008 40.7811 14.6562L40.3277 17.6218C41.1374 17.7456 41.7596 18.4492 41.7596 19.295H44.7596ZM44.6359 20.3693C44.7169 20.0237 44.7596 19.6639 44.7596 19.295H41.7596C41.7596 19.4318 41.7439 19.562 41.7151 19.6849L44.6359 20.3693ZM44.5702 19.9111C44.6489 20.0501 44.6724 20.2137 44.6359 20.3694L41.7151 19.6848C41.5795 20.2633 41.6667 20.8716 41.9594 21.3886L44.5702 19.9111ZM47.8659 28.2043C47.0181 25.1114 45.9308 22.3151 44.5702 19.9111L41.9594 21.3886C43.1701 23.528 44.1735 26.0822 44.9726 28.9974L47.8659 28.2043ZM14.1616 30.1009H46.4193V27.1009H14.1616V30.1009ZM13.8632 24.3838C13.4156 25.6266 13.0302 26.9184 12.7049 28.2431L15.6183 28.9586C15.9207 27.7275 16.2765 26.5367 16.6857 25.4002L13.8632 24.3838ZM13.9087 24.9137C13.8169 24.7522 13.8002 24.5586 13.8632 24.3838L16.6857 25.4002C16.9198 24.7504 16.8579 24.0306 16.5163 23.4303L13.9087 24.9137ZM13.4616 23.2189C13.4616 23.834 13.624 24.4131 13.9087 24.9137L16.5163 23.4303C16.482 23.37 16.4616 23.3005 16.4616 23.2189H13.4616ZM16.1472 19.8689C14.6095 20.21 13.4616 21.5807 13.4616 23.2189H16.4616C16.4616 23.0144 16.6056 22.8401 16.7969 22.7977L16.1472 19.8689ZM15.7258 20.1867C15.8136 20.0247 15.9673 19.9088 16.1472 19.8689L16.7969 22.7977C17.4656 22.6493 18.0371 22.2183 18.3634 21.6161L15.7258 20.1867ZM16.3667 19.0714C16.1453 19.4348 15.9317 19.8068 15.7258 20.1867L18.3634 21.6161C18.546 21.2792 18.7344 20.9512 18.9286 20.6325L16.3667 19.0714ZM16.2786 19.48C16.2611 19.3378 16.2922 19.1938 16.3667 19.0714L18.9286 20.6325C19.2059 20.1774 19.3213 19.6421 19.2561 19.1133L16.2786 19.48ZM16.2432 18.9012C16.2432 19.0969 16.2553 19.2901 16.2786 19.48L19.2561 19.1133C19.2477 19.0447 19.2432 18.974 19.2432 18.9012H16.2432ZM20.4181 14.2366C18.0692 14.495 16.2432 16.4849 16.2432 18.9012H19.2432C19.2432 18.0305 19.9022 17.3114 20.7461 17.2187L20.4181 14.2366ZM19.8573 14.7846C19.896 14.4947 20.1274 14.2686 20.4181 14.2366L20.7461 17.2187C21.8268 17.0998 22.6871 16.2592 22.8309 15.1816L19.8573 14.7846ZM23.2585 11.8107C21.5193 11.8107 20.0816 13.1045 19.8573 14.7846L22.8309 15.1816C22.8587 14.9739 23.0406 14.8107 23.2585 14.8107V11.8107ZM24.3799 11.9983C24.0276 11.8766 23.6501 11.8107 23.2585 11.8107V14.8107C23.3121 14.8107 23.3586 14.8195 23.3998 14.8337L24.3799 11.9983ZM23.9106 12.0197C24.0585 11.953 24.2264 11.9453 24.3799 11.9983L23.3998 14.8337C23.9702 15.0309 24.5945 15.0024 25.1446 14.7542L23.9106 12.0197ZM24.6977 13.0633C26.2852 12.3892 28.0484 12.0176 30 12.0176V9.01758C27.657 9.01758 25.494 9.46594 23.5251 10.302L24.6977 13.0633ZM23.2585 13.0825C23.433 13.0825 23.6018 13.1031 23.7628 13.1416L24.46 10.2237C24.0725 10.1311 23.6698 10.0825 23.2585 10.0825V13.0825ZM21.2025 14.5785C21.4831 13.7083 22.2993 13.0825 23.2585 13.0825V10.0825C20.959 10.0825 19.0157 11.585 18.3473 13.6576L21.2025 14.5785ZM17.515 18.9012C17.515 17.2918 18.6273 15.9391 20.1277 15.576L19.4221 12.6601C16.607 13.3414 14.515 15.8745 14.515 18.9012H17.515ZM17.5212 19.1092C17.5171 19.0404 17.515 18.9711 17.515 18.9012H14.515C14.515 19.0309 14.5189 19.1599 14.5266 19.2882L17.5212 19.1092ZM17.0103 20.4907C17.1097 20.3131 17.2109 20.1377 17.3138 19.9643L14.734 18.433C14.618 18.6284 14.5043 18.8258 14.3927 19.025L17.0103 20.4907ZM14.7334 23.2189C14.7334 22.2744 15.34 21.4687 16.1898 21.1761L15.2132 18.3396C13.1909 19.0358 11.7334 20.954 11.7334 23.2189H14.7334ZM14.9053 24.0652C14.7949 23.8063 14.7334 23.5209 14.7334 23.2189H11.7334C11.7334 23.9331 11.8798 24.6183 12.1457 25.2419L14.9053 24.0652ZM13.8444 28.9442C14.1515 27.6379 14.5169 26.367 14.942 25.1471L12.109 24.16C11.647 25.4861 11.2531 26.8578 10.924 28.2576L13.8444 28.9442ZM12.3842 27.1009H10.9156V30.1009H12.3842V27.1009ZM10.9156 27.1009C9.6099 27.1009 8.55145 28.1594 8.55145 29.465H11.5515C11.5515 29.8162 11.2668 30.1009 10.9156 30.1009V27.1009ZM8.55145 29.465C8.55145 34.4109 8.95758 39.6736 12.1373 43.6236L14.4742 41.7424C12.0154 38.688 11.5515 34.416 11.5515 29.465H8.55145ZM12.1373 43.6236C14.1374 46.1082 17.0484 47.8581 21.0579 48.8334L21.767 45.9183C18.2527 45.0636 15.9748 43.6064 14.4742 41.7424L12.1373 43.6236ZM19.9125 47.3758V48.5549H22.9125V47.3758H19.9125ZM19.9125 48.5549C19.9125 50.4603 21.2176 52.292 23.32 52.6425L23.8134 49.6834C23.3002 49.5978 22.9125 49.1435 22.9125 48.5549H19.9125ZM23.32 52.6425C24.7468 52.8804 27.0553 53.1536 30.1335 53.1536V50.1536C27.233 50.1536 25.0898 49.8962 23.8134 49.6834L23.32 52.6425ZM30.1335 53.1536C33.1645 53.1536 35.3687 52.8887 36.74 52.6498L36.2252 49.6944C35.0208 49.9042 32.9889 50.1536 30.1335 50.1536V53.1536ZM36.74 52.6498C38.8314 52.2855 40.0875 50.4568 40.0875 48.595H37.0875C37.0875 49.1719 36.7157 49.6089 36.2252 49.6944L36.74 52.6498ZM40.0875 48.595V47.3758H37.0875V48.595H40.0875ZM38.942 48.8334C42.9515 47.8581 45.8626 46.1082 47.8627 43.6236L45.5258 41.7424C44.0252 43.6064 41.7473 45.0636 38.233 45.9183L38.942 48.8334ZM47.8627 43.6236C51.0424 39.6736 51.4485 34.4109 51.4485 29.465H48.4485C48.4485 34.416 47.9845 38.688 45.5258 41.7424L47.8627 43.6236ZM51.4485 29.465C51.4485 28.1593 50.3901 27.1009 49.0844 27.1009V30.1009C48.7332 30.1009 48.4485 29.8162 48.4485 29.465H51.4485ZM49.0844 27.1009H48.209V30.1009H49.0844V27.1009ZM43.6114 20.8027C44.9027 23.1489 45.9448 25.9027 46.7587 28.984L49.6592 28.2178C48.7989 24.9607 47.6763 21.9664 46.2397 19.3562L43.6114 20.8027ZM43.4879 19.295C43.4879 19.4816 43.473 19.6642 43.4445 19.8418L46.4066 20.317C46.4602 19.9829 46.4879 19.6414 46.4879 19.295H43.4879ZM40.9049 15.9772C42.3904 16.351 43.4879 17.6963 43.4879 19.295H46.4879C46.4879 16.2881 44.4233 13.7691 41.6371 13.0679L40.9049 15.9772ZM37.4776 13.5236C38.5442 13.6834 39.4532 14.3379 39.9593 15.2502L42.5827 13.7948C41.6375 12.0911 39.9365 10.8584 37.9219 10.5567L37.4776 13.5236ZM35.2868 12.632C35.8328 12.632 36.3297 12.8336 36.7105 13.1677L38.689 10.9126C37.7826 10.1174 36.5892 9.63202 35.2868 9.63202V12.632ZM34.9542 12.6574C35.0622 12.6407 35.1732 12.632 35.2868 12.632V9.63202C35.0196 9.63202 34.7557 9.65254 34.497 9.69243L34.9542 12.6574ZM30 12.0176C31.5493 12.0176 32.98 12.2234 34.3006 12.6135L35.1505 9.73636C33.5363 9.25952 31.8179 9.01758 30 9.01758V12.0176ZM22.8851 49.2111C24.9759 49.5727 27.3378 49.7558 30 49.7558V46.7558C27.4713 46.7558 25.2847 46.5816 23.3963 46.255L22.8851 49.2111ZM24.6407 48.5549V47.7331H21.6407V48.5549H24.6407ZM24.0976 47.9787C24.2693 48.0073 24.4144 48.0981 24.5106 48.2165C24.609 48.3376 24.6407 48.4658 24.6407 48.5549H21.6407C21.6407 49.7166 22.4312 50.7423 23.6042 50.9378L24.0976 47.9787ZM30.1335 48.4253C27.3354 48.4253 25.2874 48.1771 24.0976 47.9787L23.6042 50.9378C24.9444 51.1613 27.1577 51.4253 30.1335 51.4253V48.4253ZM35.9286 47.9918C34.8204 48.1848 32.8877 48.4253 30.1335 48.4253V51.4253C33.0633 51.4253 35.1683 51.1694 36.4434 50.9473L35.9286 47.9918ZM35.3593 48.595C35.3593 48.5088 35.3895 48.3756 35.493 48.2465C35.5942 48.1203 35.7472 48.0234 35.9286 47.9918L36.4434 50.9473C37.5963 50.7464 38.3593 49.7342 38.3593 48.595H35.3593ZM35.3593 47.7331V48.595H38.3593V47.7331H35.3593ZM30 49.7558C32.6622 49.7558 35.024 49.5727 37.1149 49.2111L36.6037 46.255C34.7153 46.5816 32.5287 46.7558 30 46.7558V49.7558ZM38.3395 47.2011C42.1747 46.3017 44.7841 44.6918 46.5164 42.5399L44.1795 40.6587C42.9545 42.1805 40.9898 43.4982 37.6545 44.2804L38.3395 47.2011ZM37.7234 47.1966C37.6556 47.1966 37.5875 47.1854 37.5224 47.1637L38.4715 44.3178C38.2345 44.2388 37.9824 44.1966 37.7234 44.1966V47.1966ZM22.2766 47.1966H37.7234V44.1966H22.2766V47.1966ZM22.4775 47.1637C22.4125 47.1854 22.3444 47.1966 22.2766 47.1966V44.1966C22.0175 44.1966 21.7654 44.2388 21.5285 44.3178L22.4775 47.1637ZM13.4835 42.5399C15.2159 44.6918 17.8252 46.3017 21.6605 47.2011L22.3455 44.2804C19.0102 43.4982 17.0455 42.1805 15.8204 40.6587L13.4835 42.5399ZM10.2849 30.3477C10.3418 34.953 10.8762 39.3009 13.4835 42.5399L15.8204 40.6587C13.9025 38.2761 13.3409 34.8583 13.2847 30.3106L10.2849 30.3477ZM48.2152 28.8291H11.7848V31.8291H48.2152V28.8291ZM46.5164 42.5399C49.1237 39.3009 49.6581 34.953 49.715 30.3477L46.7153 30.3106C46.6591 34.8583 46.0975 38.2761 44.1795 40.6587L46.5164 42.5399Z" fill="#F8F9FA" mask="url(#path-1-outside-1_694_8277)"/>
</g>
<path d="M22.2766 46.5791H37.7235V48.5543C37.7235 49.4351 37.1428 50.2007 36.2747 50.3495C35.0288 50.5632 32.9803 50.8079 30.1336 50.8079C27.2399 50.8079 25.0834 50.555 23.7689 50.339C22.8803 50.193 22.2766 49.4131 22.2766 48.5126V46.5791Z" fill="#D0BFFF" stroke="#212529" stroke-width="1.8" stroke-linecap="round" stroke-linejoin="round"/>
<g style="mix-blend-mode:multiply" opacity="0.4">
<path fill-rule="evenodd" clip-rule="evenodd" d="M28.8418 50.4577C29.2544 50.4688 29.6851 50.4749 30.1335 50.4749C32.9802 50.4749 35.0287 50.2302 36.2747 50.0166C37.1428 49.8677 37.7234 49.1021 37.7234 48.2213V46.2461H35.1458V48.2213C35.1458 49.1021 34.5652 49.8677 33.6971 50.0166C32.6474 50.1965 31.0281 50.3986 28.8418 50.4577Z" fill="#BAC8FF"/>
</g>
<path d="M30 47.4101C47.2771 47.4101 49.0844 39.3841 49.0844 29.4834H10.9156C10.9156 39.3841 12.7229 47.4101 30 47.4101Z" fill="#BAC8FF" stroke="#212529" stroke-width="1.8" stroke-linecap="round" stroke-linejoin="round"/>
<g style="mix-blend-mode:multiply" opacity="0.4">
<path fill-rule="evenodd" clip-rule="evenodd" d="M46.5191 29.4834C46.5191 39.1764 44.7868 47.0726 28.5016 47.3996C28.8505 47.4066 29.2061 47.4101 29.5685 47.4101C46.8455 47.4101 48.6529 39.3841 48.6529 29.4834H46.5191Z" fill="#BAC8FF"/>
</g>
<g style="mix-blend-mode:soft-light" opacity="0.5">
<path fill-rule="evenodd" clip-rule="evenodd" d="M13.0744 30.3428C13.0744 39.188 14.7486 46.3813 30.5803 46.5758C30.3615 46.5785 30.14 46.5798 29.9158 46.5798C13.4662 46.5798 11.7454 39.3102 11.7454 30.3428H13.0744Z" fill="#F8F9FA"/>
</g>
<path fill-rule="evenodd" clip-rule="evenodd" d="M30 11.4004C27.8527 11.4004 25.9128 11.8325 24.1721 12.6181C23.8858 12.5191 23.5784 12.4654 23.2585 12.4654C21.8412 12.4654 20.6703 13.52 20.4877 14.8874C18.4581 15.1106 16.8792 16.8308 16.8792 18.9199C16.8792 19.0895 16.8896 19.2568 16.9098 19.421C16.6941 19.7749 16.4858 20.1376 16.2849 20.5084C15.0334 20.7861 14.0975 21.9026 14.0975 23.2377C14.0975 23.7396 14.2298 24.2107 14.4615 24.6179C13.9028 26.1693 13.4415 27.8018 13.0744 29.4837H47.539C46.6633 25.987 45.5017 22.8666 44.0169 20.243C44.0868 19.9445 44.1238 19.6334 44.1238 19.3137C44.1238 17.2832 42.6322 15.6012 40.685 15.3035C40.103 13.9707 38.8259 13.0111 37.3118 12.883C36.8026 12.3482 36.0836 12.0148 35.2868 12.0148C35.0772 12.0148 34.873 12.0379 34.6765 12.0817C33.2388 11.6345 31.6821 11.4004 30 11.4004Z" fill="#F1F3F5"/>
<path d="M24.1721 12.6181L23.8781 13.4687C24.0953 13.5437 24.3329 13.5329 24.5423 13.4384L24.1721 12.6181ZM20.4877 14.8874L20.586 15.782C20.9975 15.7367 21.325 15.4167 21.3797 15.0065L20.4877 14.8874ZM16.9098 19.421L17.6784 19.8893C17.7839 19.7161 17.8279 19.5123 17.8031 19.3109L16.9098 19.421ZM16.2849 20.5084L16.4798 21.3871C16.7344 21.3306 16.9519 21.1665 17.0762 20.9372L16.2849 20.5084ZM14.4615 24.6179L15.3082 24.9229C15.3973 24.6755 15.3738 24.4015 15.2437 24.1729L14.4615 24.6179ZM13.0744 29.4837L12.1951 29.2917C12.137 29.5578 12.2026 29.836 12.3734 30.0481C12.5443 30.2603 12.802 30.3837 13.0744 30.3837V29.4837ZM47.539 29.4837V30.3837C47.8163 30.3837 48.078 30.2559 48.2486 30.0374C48.4191 29.8188 48.4794 29.5339 48.4121 29.265L47.539 29.4837ZM44.0169 20.243L43.1406 20.0376C43.089 20.2578 43.1222 20.4894 43.2336 20.6862L44.0169 20.243ZM40.685 15.3035L39.8602 15.6636C39.9837 15.9466 40.2437 16.1465 40.549 16.1931L40.685 15.3035ZM37.3118 12.883L36.66 13.5036C36.8117 13.663 37.0166 13.7613 37.2359 13.7798L37.3118 12.883ZM34.6765 12.0817L34.4092 12.941C34.5592 12.9877 34.7188 12.9943 34.8721 12.9601L34.6765 12.0817ZM24.5423 13.4384C26.1636 12.7067 27.977 12.3004 30 12.3004V10.5004C27.7284 10.5004 25.6619 10.9583 23.8019 11.7977L24.5423 13.4384ZM23.2585 13.3654C23.477 13.3654 23.6851 13.402 23.8781 13.4687L24.4661 11.7674C24.0865 11.6362 23.6798 11.5654 23.2585 11.5654V13.3654ZM21.3797 15.0065C21.5034 14.0803 22.2982 13.3654 23.2585 13.3654V11.5654C21.3842 11.5654 19.8371 12.9598 19.5956 14.7682L21.3797 15.0065ZM17.7792 18.9199C17.7792 17.2949 19.0077 15.9556 20.586 15.782L20.3893 13.9928C17.9085 14.2656 15.9792 16.3668 15.9792 18.9199H17.7792ZM17.8031 19.3109C17.7873 19.1832 17.7792 19.0527 17.7792 18.9199H15.9792C15.9792 19.1264 15.9918 19.3304 16.0166 19.531L17.8031 19.3109ZM17.0762 20.9372C17.2701 20.5793 17.4709 20.2298 17.6784 19.8893L16.1412 18.9527C15.9174 19.32 15.7015 19.6959 15.4936 20.0796L17.0762 20.9372ZM14.9975 23.2377C14.9975 22.3335 15.6314 21.5753 16.4798 21.3871L16.09 19.6298C14.4354 19.9969 13.1975 21.4716 13.1975 23.2377H14.9975ZM15.2437 24.1729C15.0872 23.8978 14.9975 23.5795 14.9975 23.2377H13.1975C13.1975 23.8997 13.3724 24.5237 13.6792 25.063L15.2437 24.1729ZM13.9537 29.6756C14.3133 28.0283 14.7641 26.4338 15.3082 24.9229L13.6147 24.313C13.0415 25.9048 12.5698 27.5754 12.1951 29.2917L13.9537 29.6756ZM47.539 28.5837H13.0744V30.3837H47.539V28.5837ZM43.2336 20.6862C44.6685 23.2217 45.8043 26.2617 46.666 29.7023L48.4121 29.265C47.5223 25.7124 46.3349 22.5116 44.8001 19.7997L43.2336 20.6862ZM43.2238 19.3137C43.2238 19.5638 43.1949 19.806 43.1406 20.0376L44.8931 20.4483C44.9787 20.0831 45.0238 19.7031 45.0238 19.3137H43.2238ZM40.549 16.1931C42.0634 16.4247 43.2238 17.7345 43.2238 19.3137H45.0238C45.0238 16.832 43.201 14.7777 40.821 14.4138L40.549 16.1931ZM37.2359 13.7798C38.4114 13.8793 39.4067 14.625 39.8602 15.6636L41.5098 14.9433C40.7994 13.3165 39.2403 12.143 37.3877 11.9862L37.2359 13.7798ZM35.2868 12.9148C35.8272 12.9148 36.3136 13.1398 36.66 13.5036L37.9636 12.2624C37.2916 11.5566 36.34 11.1148 35.2868 11.1148V12.9148ZM34.8721 12.9601C35.0048 12.9306 35.1434 12.9148 35.2868 12.9148V11.1148C35.011 11.1148 34.7411 11.1452 34.4809 11.2032L34.8721 12.9601ZM30 12.3004C31.5976 12.3004 33.0637 12.5225 34.4092 12.941L34.9438 11.2223C33.4139 10.7464 31.7666 10.5004 30 10.5004V12.3004Z" fill="#212529"/>
<g style="mix-blend-mode:multiply">
<path fill-rule="evenodd" clip-rule="evenodd" d="M26.3537 13.0415C27.6681 12.5756 29.0993 12.3243 30.6512 12.3243C32.1615 12.3243 33.5591 12.5344 34.8499 12.9359C35.0263 12.8966 35.2096 12.8759 35.3978 12.8759C36.1132 12.8759 36.7586 13.1752 37.2158 13.6553C38.5753 13.7703 39.722 14.6319 40.2445 15.8286C41.9927 16.0959 43.3319 17.6061 43.3319 19.429C43.3319 19.7161 43.2987 19.9954 43.2359 20.2633C44.569 22.6189 45.6119 25.4205 46.3982 28.5599H44.4666C43.6959 25.6177 42.693 22.9841 41.4293 20.7512C41.4921 20.4833 41.5253 20.204 41.5253 19.9169C41.5253 18.0939 40.1861 16.5838 38.4379 16.3165C37.9154 15.1199 36.7687 14.2583 35.4093 14.1433C34.9521 13.6631 34.3067 13.3638 33.5913 13.3638C33.403 13.3638 33.2197 13.3846 33.0433 13.4238C31.7525 13.0223 30.3549 12.8122 28.8446 12.8122C27.9768 12.8122 27.1467 12.8908 26.3537 13.0415ZM25.1349 13.3378C24.9621 13.3002 24.7826 13.2804 24.5985 13.2804C24.0315 13.2804 23.5083 13.4684 23.0881 13.7856C23.2694 13.8069 23.4448 13.8475 23.6122 13.9054C24.1022 13.6843 24.6096 13.4944 25.1349 13.3378Z" fill="#E9ECEF"/>
</g>
<circle cx="25.6738" cy="18.2393" r="0.488815" transform="rotate(-124.938 25.6738 18.2393)" fill="#212529"/>
<circle cx="28.1154" cy="15.9375" r="0.488815" transform="rotate(-124.938 28.1154 15.9375)" fill="#212529"/>
<circle cx="28.8047" cy="18.6309" r="0.488815" transform="rotate(-124.938 28.8047 18.6309)" fill="#212529"/>
<circle cx="31.3671" cy="15.6484" r="0.488815" transform="rotate(-124.938 31.3671 15.6484)" fill="#212529"/>
<circle cx="34.6061" cy="16.9258" r="0.488815" transform="rotate(-124.938 34.6061 16.9258)" fill="#212529"/>
<circle cx="32.2275" cy="18.5869" r="0.488815" transform="rotate(-124.938 32.2275 18.5869)" fill="#212529"/>
<g style="mix-blend-mode:soft-light" opacity="0.8">
<path d="M18.5813 24.6846C17.614 23.9051 18.1413 21.763 19.088 20.3421C20.2126 18.6542 22.1249 17.1857 22.5645 17.0034C23.114 16.7755 23.1726 18.4508 20.8413 21.4734C19.9048 22.6877 19.5486 25.4642 18.5813 24.6846Z" fill="#F8F9FA"/>
</g>
<defs>
<filter id="filter0_d_694_8277" x="8.33145" y="8.99758" width="43.3371" height="44.5757" filterUnits="userSpaceOnUse" color-interpolation-filters="sRGB">
<feFlood flood-opacity="0" result="BackgroundImageFix"/>
<feColorMatrix in="SourceAlpha" type="matrix" values="0 0 0 0 0 0 0 0 0 0 0 0 0 0 0 0 0 0 127 0" result="hardAlpha"/>
<feOffset dy="0.2"/>
<feGaussianBlur stdDeviation="0.11"/>
<feComposite in2="hardAlpha" operator="out"/>
<feColorMatrix type="matrix" values="0 0 0 0 0 0 0 0 0 0 0 0 0 0 0 0 0 0 0.2 0"/>
<feBlend mode="normal" in2="BackgroundImageFix" result="effect1_dropShadow_694_8277"/>
<feBlend mode="normal" in="SourceGraphic" in2="effect1_dropShadow_694_8277" result="shape"/>
</filter>
</defs>
</svg>
